<svg width="218" height="181" viewBox="0 0 218 181" fill="none" xmlns="http://www.w3.org/2000/svg">
<g clip-path="url(#clip0_2_224)">
<g opacity="0.2">
<path d="M135.079 140.415C145.839 137.16 152.297 132.994 152.297 128.455C152.297 118.027 118.203 109.574 76.1469 109.574C34.0905 109.574 0 118.028 0 128.455C0 138.883 34.0932 147.337 76.149 147.337C78.9559 147.337 81.7239 147.299 84.4532 147.224C74.3919 150.809 68.2777 155.527 68.2777 160.698C68.2777 171.911 97.0131 181.001 132.461 181.001C167.909 181.001 196.644 171.911 196.644 160.698C196.644 149.763 169.312 140.849 135.079 140.415Z" fill="#000070"/>
</g>
<path d="M187.614 154.732C187.276 154.733 186.941 154.665 186.629 154.533C186.318 154.401 186.035 154.208 185.799 153.965C180.36 148.372 183.656 139.014 183.799 138.618C183.841 138.499 183.893 138.384 183.954 138.273C184.897 136.525 185.239 135.042 185.004 133.738C184.691 132.007 182.962 130.814 181.148 131.077C180.471 131.175 179.815 131.25 179.2 131.299C174.343 131.686 169.615 129.169 167.157 124.891C164.992 121.127 161.997 118.856 157.996 117.949C157.341 117.799 156.772 117.394 156.414 116.823C156.056 116.251 155.938 115.56 156.086 114.902C156.234 114.243 156.635 113.67 157.203 113.309C157.77 112.948 158.457 112.827 159.113 112.974C164.497 114.198 168.681 117.346 171.551 122.341C173.04 124.925 175.881 126.446 178.801 126.217C179.308 126.177 179.853 126.114 180.425 126.032C184.983 125.369 189.187 128.354 189.997 132.827C190.438 135.263 189.953 137.78 188.515 140.517C187.85 142.51 186.84 147.74 189.429 150.401C189.778 150.76 190.014 151.215 190.107 151.708C190.2 152.201 190.146 152.711 189.953 153.173C189.759 153.636 189.434 154.031 189.018 154.308C188.602 154.586 188.114 154.734 187.614 154.734L187.614 154.732Z" fill="#000070"/>
<g opacity="0.55">
<path d="M189.428 150.399C189.661 150.639 189.845 150.922 189.969 151.233C190.093 151.544 190.155 151.877 190.151 152.212C190.148 152.546 190.078 152.877 189.947 153.185C189.816 153.494 189.626 153.773 189.388 154.007C189.323 154.068 189.259 154.126 189.188 154.184C189.248 153.794 189.216 153.395 189.096 153.02C188.975 152.645 188.769 152.303 188.495 152.021C185.907 149.359 186.915 144.13 187.581 142.137C189.019 139.4 189.503 136.884 189.063 134.446C188.251 129.972 184.05 126.99 179.489 127.65C178.921 127.735 178.376 127.796 177.866 127.837C174.95 128.068 172.101 126.545 170.616 123.961C167.748 118.963 163.563 115.814 158.177 114.593C157.809 114.509 157.426 114.508 157.057 114.592C156.688 114.676 156.342 114.843 156.046 115.08C156.054 115.018 156.065 114.957 156.08 114.896C156.153 114.569 156.289 114.261 156.481 113.987C156.673 113.713 156.917 113.48 157.198 113.302C157.48 113.123 157.794 113.002 158.122 112.945C158.45 112.889 158.786 112.898 159.111 112.972C164.497 114.196 168.681 117.344 171.55 122.339C173.038 124.923 175.883 126.443 178.803 126.215C179.307 126.174 179.851 126.113 180.423 126.031C184.98 125.368 189.185 128.353 189.993 132.824C190.436 135.262 189.949 137.778 188.512 140.515C187.848 142.508 186.84 147.737 189.428 150.399Z" fill="white"/>
</g>
<path d="M184.096 165.924C190.242 180.289 219.588 180.884 214.344 163.459C208.086 143.909 183.712 140.323 181.784 158.524C181.786 158.524 181.751 162.189 184.096 165.924Z" fill="white"/>
<path d="M214.099 163.221C213.084 160.058 211.595 157.315 209.808 155.013C209.788 155.008 209.768 155.006 209.748 155C209.308 154.885 208.906 154.66 208.483 154.492C207.91 154.267 207.301 154.152 206.69 154.084C201.055 153.442 195.505 156.566 191.826 160.904C190.913 161.981 190.078 163.154 189.61 164.489C189.344 165.249 189.204 166.046 189.062 166.839C188.847 168.052 188.521 169.315 188.379 170.552C188.244 170.766 188.117 170.986 188 171.214C198.039 179.82 218.556 178.027 214.099 163.221Z" fill="white"/>
<g opacity="0.3">
<path d="M214.942 168.08C214.045 180.633 189.638 178.878 184.097 165.924C181.753 162.191 181.786 158.525 181.786 158.525C182.159 155.006 183.37 152.3 185.132 150.369C184.939 151.154 184.801 151.951 184.719 152.756C184.719 152.756 184.682 156.421 187.03 160.157C191.482 170.565 208.114 173.744 214.942 168.08Z" fill="#000070"/>
</g>
<g opacity="0.55">
<path d="M214.895 168.576C214.792 167.689 214.608 166.814 214.346 165.961C208.203 146.772 184.608 142.967 181.922 160.042C181.84 159.542 181.794 159.036 181.786 158.529C183.715 140.325 208.088 143.912 214.346 163.462C214.925 165.38 215.083 167.083 214.895 168.576Z" fill="white"/>
</g>
<path d="M202.801 177.824C195.047 177.824 186.244 173.828 183.045 166.483C180.591 162.525 180.598 158.678 180.6 158.515C180.601 158.477 180.603 158.439 180.607 158.401C181.386 151.043 185.822 146.238 192.473 145.549C200.627 144.703 211.461 150.567 215.472 163.093C217.404 169.514 215.056 174.618 209.196 176.767C207.269 177.476 205.08 177.824 202.801 177.824ZM182.971 158.58C182.981 158.997 183.12 162.136 185.098 165.286C185.132 165.338 185.161 165.393 185.185 165.451C188.688 173.639 200.871 177.286 208.386 174.53C213.064 172.814 214.779 169.004 213.213 163.8C209.591 152.485 199.952 147.164 192.718 147.912C187.2 148.486 183.651 152.372 182.971 158.58Z" fill="#000070"/>
<path d="M207.873 157.564C214.639 150.159 221.366 160.643 212.74 164.139L207.873 157.564Z" fill="#000070"/>
<g opacity="0.55">
<path d="M215.747 162.048C216.796 158.383 212.746 154.544 208.247 158.07L207.872 157.563C213.565 151.331 219.231 157.767 215.747 162.048Z" fill="white"/>
</g>
<path d="M212.74 165.329C212.465 165.329 212.199 165.233 211.987 165.057C211.775 164.881 211.63 164.637 211.578 164.365C211.525 164.094 211.569 163.813 211.7 163.571C211.831 163.328 212.042 163.139 212.297 163.035C214.429 162.171 215.645 160.75 215.632 159.137C215.623 157.905 214.87 156.787 213.759 156.358C212.267 155.781 210.441 156.514 208.746 158.369C208.641 158.484 208.514 158.577 208.373 158.643C208.232 158.709 208.079 158.747 207.924 158.753C207.769 158.76 207.614 158.736 207.467 158.682C207.321 158.629 207.187 158.547 207.073 158.441C206.958 158.335 206.865 158.208 206.8 158.066C206.734 157.925 206.697 157.771 206.69 157.615C206.684 157.459 206.708 157.303 206.761 157.156C206.814 157.009 206.896 156.875 207.001 156.759C210.393 153.047 213.452 153.688 214.61 154.137C216.62 154.914 217.982 156.917 218 159.119C218.02 161.722 216.219 164.015 213.182 165.243C213.041 165.3 212.891 165.329 212.74 165.329Z" fill="#000070"/>
<path d="M189.095 173.329C188.841 173.328 188.595 173.247 188.391 173.095C188.188 172.944 188.037 172.731 187.963 172.488C186.181 166.666 190.268 160.348 194.82 156.942C199.908 153.134 205.487 152.569 209.746 155.431C209.876 155.517 209.989 155.628 210.076 155.759C210.164 155.889 210.225 156.035 210.256 156.189C210.287 156.343 210.287 156.501 210.257 156.656C210.227 156.81 210.166 156.956 210.08 157.087C209.993 157.217 209.881 157.329 209.751 157.416C209.621 157.503 209.475 157.563 209.321 157.593C209.168 157.623 209.01 157.622 208.857 157.591C208.704 157.559 208.558 157.497 208.429 157.409C205.042 155.133 200.483 155.672 196.235 158.85C192.204 161.867 188.846 167.279 190.227 171.788C190.281 171.966 190.293 172.155 190.262 172.338C190.23 172.522 190.157 172.695 190.047 172.845C189.937 172.995 189.793 173.116 189.628 173.2C189.463 173.284 189.28 173.328 189.095 173.329Z" fill="#000070"/>
<path d="M200.618 156.489C200.443 156.49 200.271 156.451 200.112 156.376C199.954 156.301 199.815 156.191 199.703 156.056C194.534 149.746 188.74 148.892 188.682 148.884C188.526 148.866 188.375 148.816 188.239 148.738C188.102 148.66 187.982 148.556 187.886 148.431C187.79 148.306 187.719 148.164 187.679 148.011C187.638 147.859 187.628 147.7 187.649 147.543C187.67 147.387 187.722 147.236 187.801 147.1C187.881 146.964 187.987 146.845 188.112 146.75C188.238 146.656 188.381 146.587 188.533 146.549C188.686 146.51 188.844 146.502 188.999 146.526C189.274 146.563 195.778 147.52 201.532 154.543C201.674 154.717 201.764 154.928 201.792 155.152C201.82 155.376 201.784 155.603 201.688 155.807C201.592 156.011 201.441 156.183 201.252 156.304C201.062 156.425 200.843 156.489 200.618 156.489Z" fill="#000070"/>
<path d="M205.663 177.578C207.174 177.578 208.398 176.661 208.398 175.529C208.398 174.397 207.174 173.48 205.663 173.48C204.153 173.48 202.929 174.397 202.929 175.529C202.929 176.661 204.153 177.578 205.663 177.578Z" fill="#000070"/>
<path d="M209.92 170.534C210.761 170.534 211.443 169.849 211.443 169.004C211.443 168.159 210.761 167.474 209.92 167.474C209.08 167.474 208.398 168.159 208.398 169.004C208.398 169.849 209.08 170.534 209.92 170.534Z" fill="#000070"/>
<path d="M199.124 169.579C199.964 169.579 200.646 168.894 200.646 168.049C200.646 167.204 199.964 166.519 199.124 166.519C198.283 166.519 197.601 167.204 197.601 168.049C197.601 168.894 198.283 169.579 199.124 169.579Z" fill="#000070"/>
<path d="M193.288 165.414C184.831 161.079 193.711 151.134 199.124 158.524L193.288 165.414Z" fill="#000070"/>
<g opacity="0.55">
<path d="M199.124 158.525C198.819 158.885 198.396 159.123 197.932 159.195C197.468 159.268 196.993 159.171 196.594 158.921C193.902 157.241 190.991 158.588 189.8 160.814C189.662 156.785 195.271 153.266 199.124 158.525Z" fill="white"/>
</g>
<path d="M193.287 166.604C193.1 166.604 192.916 166.56 192.75 166.474C189.874 165 188.376 162.68 188.641 160.109C188.889 157.686 190.731 155.537 193.118 154.885C195.664 154.188 198.201 155.257 200.077 157.819C200.172 157.945 200.241 158.088 200.281 158.241C200.321 158.394 200.329 158.553 200.307 158.709C200.285 158.865 200.232 159.016 200.151 159.151C200.07 159.287 199.964 159.405 199.837 159.498C199.711 159.592 199.567 159.659 199.414 159.697C199.261 159.734 199.103 159.74 198.948 159.715C198.793 159.69 198.644 159.634 198.511 159.551C198.377 159.468 198.261 159.359 198.17 159.23C196.885 157.478 195.312 156.75 193.74 157.181C192.298 157.575 191.144 158.91 190.996 160.353C190.836 161.917 191.84 163.336 193.826 164.354C194.063 164.475 194.253 164.674 194.364 164.917C194.475 165.16 194.502 165.434 194.439 165.694C194.376 165.954 194.229 166.185 194.019 166.35C193.81 166.515 193.551 166.605 193.285 166.604H193.287Z" fill="#000070"/>
<path d="M40.6769 95.475C28.2483 97.4164 21.7857 100.585 21.4474 104.893C21.718 106.488 23.0035 107.341 25.9297 108.932C26.3153 109.14 26.7043 109.354 27.0968 109.575C27.1001 109.575 27.1035 109.578 27.1069 109.578C27.7801 109.959 28.4601 110.367 29.1265 110.823C29.6196 111.158 30.0776 111.543 30.4932 111.972C32.0494 113.564 32.9682 115.676 33.0743 117.905C33.2265 120.764 32.0831 123.461 29.935 125.304C27.2896 127.571 23.3282 129.098 18.4806 129.713C18.3382 129.733 18.1946 129.742 18.051 129.741C17.1912 129.74 16.364 129.409 15.7377 128.817C15.1113 128.225 14.7328 127.416 14.6789 126.554C14.6251 125.691 14.9 124.84 15.4478 124.174C15.9956 123.508 16.7752 123.077 17.6281 122.968C19.3026 122.757 20.8182 122.414 22.1206 121.958C23.538 121.472 24.7017 120.85 25.544 120.129C25.8085 119.901 26.0164 119.614 26.1509 119.291C26.2854 118.968 26.3429 118.618 26.3187 118.269C26.3041 117.905 26.2054 117.55 26.0304 117.231C25.8554 116.912 25.609 116.639 25.3106 116.433C24.5427 115.906 23.653 115.42 22.7092 114.906C19.5699 113.199 15.2736 110.86 14.6918 105.393C14.6748 105.243 14.6681 105.092 14.6715 104.941C14.8203 99.351 18.4941 95.6926 23.4602 93.2445H23.4636C28.318 90.8407 34.4071 89.5725 39.637 88.7565C40.5159 88.6347 41.4071 88.8648 42.1188 89.3972C42.8305 89.9295 43.3056 90.7216 43.4418 91.6027C43.578 92.4838 43.3644 93.3834 42.847 94.1077C42.3295 94.832 41.5498 95.323 40.6756 95.475H40.6769Z" fill="#8E8EB2"/>
<path d="M33.0756 117.905C33.0359 117.193 32.9151 116.489 32.7157 115.805C28.5176 112.983 26.32 118.268 26.32 118.268C26.3442 118.617 26.2867 118.967 26.1522 119.29C26.0177 119.613 25.8099 119.9 25.5454 120.127C24.703 120.848 23.5393 121.47 22.1219 121.957C20.8195 122.412 19.304 122.756 17.6295 122.966C16.7765 123.075 15.997 123.507 15.4491 124.173C14.9013 124.839 14.6264 125.69 14.6803 126.552C14.7341 127.415 15.1127 128.224 15.739 128.816C16.3654 129.408 17.1925 129.738 18.0523 129.739C18.196 129.74 18.3395 129.731 18.4819 129.712C23.3296 129.1 27.2909 127.57 29.9363 125.302C32.0844 123.461 33.2279 120.765 33.0756 117.905Z" fill="white"/>
<path d="M18.051 131.102C16.8465 131.102 15.6874 130.64 14.8096 129.811C13.9318 128.982 13.4014 127.848 13.3261 126.639C13.2508 125.431 13.6365 124.239 14.4045 123.307C15.1725 122.374 16.2653 121.771 17.4603 121.619C20.6402 121.211 23.2694 120.294 24.6679 119.095C24.8844 118.909 24.9852 118.655 24.9689 118.34C24.9648 118.186 24.9246 118.035 24.8516 117.9C24.7786 117.764 24.6749 117.647 24.5488 117.56C23.8384 117.071 22.9771 116.603 22.0651 116.106C18.8554 114.359 14.0051 111.718 13.3468 105.539C13.3244 105.329 13.3158 105.117 13.3211 104.906C13.6397 92.8305 28.3741 89.1367 39.4293 87.4081C40.0439 87.312 40.6713 87.3386 41.2756 87.4862C41.88 87.6339 42.4495 87.8997 42.9516 88.2686C43.4538 88.6375 43.8787 89.1021 44.2022 89.636C44.5256 90.1699 44.7413 90.7627 44.8368 91.3804C44.9324 91.998 44.906 92.6286 44.7591 93.236C44.6122 93.8434 44.3477 94.4158 43.9807 94.9205C43.6137 95.4252 43.1514 95.8523 42.6202 96.1774C42.0889 96.5025 41.4992 96.7193 40.8846 96.8153C25.9446 99.1505 23.109 102.763 22.8201 104.822C23.0333 105.628 23.8546 106.25 26.5792 107.733C27.6617 108.323 28.7828 108.932 29.8944 109.696C32.6007 111.555 34.2522 114.519 34.4274 117.829C34.602 121.116 33.2854 124.216 30.8152 126.335C27.9675 128.776 23.7613 130.41 18.6511 131.061C18.4521 131.087 18.2517 131.101 18.051 131.102ZM40.1634 90.0737C40.0574 90.0738 39.9516 90.082 39.8468 90.0982C29.7476 91.6772 16.2919 94.9371 16.0267 104.981C16.0242 105.072 16.0278 105.163 16.0375 105.253C16.5443 110.007 20.3202 112.063 23.354 113.715C24.3289 114.246 25.2484 114.747 26.0758 115.314C26.5456 115.637 26.9342 116.066 27.2112 116.566C27.4882 117.066 27.6459 117.623 27.6719 118.195C27.707 118.753 27.6126 119.312 27.3962 119.827C27.1798 120.342 26.8473 120.8 26.4249 121.164C24.6097 122.721 21.5468 123.841 17.8013 124.318C17.5353 124.35 17.2783 124.435 17.0449 124.567C16.8115 124.699 16.6065 124.876 16.4417 125.088C16.2768 125.301 16.1554 125.544 16.0844 125.803C16.0134 126.063 15.9942 126.334 16.0279 126.601C16.0617 126.868 16.1477 127.126 16.281 127.359C16.4144 127.593 16.5923 127.798 16.8048 127.962C17.0172 128.126 17.2598 128.246 17.5186 128.315C17.7774 128.385 18.0474 128.402 18.3128 128.366C22.898 127.782 26.6144 126.364 29.0595 124.268C30.8829 122.704 31.8551 120.411 31.7252 117.977C31.6685 116.778 31.3355 115.61 30.7527 114.563C30.1699 113.516 29.3531 112.62 28.3667 111.945C27.3694 111.26 26.3119 110.684 25.2903 110.128C22.3323 108.518 20.5015 107.415 20.1159 105.12C20.0974 105.01 20.0924 104.898 20.101 104.787C20.4961 99.6972 27.1583 96.2115 40.4699 94.13C40.8666 94.0679 41.2361 93.889 41.5316 93.6159C41.8272 93.3428 42.0355 92.9877 42.1302 92.5956C42.2249 92.2034 42.2018 91.7919 42.0638 91.413C41.9258 91.034 41.6791 90.7047 41.3549 90.4668C41.0097 90.2111 40.5922 90.0734 40.1634 90.0737Z" fill="#000070"/>
<g opacity="0.3">
<path d="M40.6769 95.475C28.2483 97.4164 21.7857 100.585 21.4474 104.893C21.718 106.488 23.0035 107.341 25.9297 108.932C26.3153 109.14 26.7043 109.354 27.0968 109.575C10.4463 103.863 23.2132 93.4417 23.4602 93.2445H23.4636C28.318 90.8407 34.4071 89.5725 39.637 88.7565C40.5159 88.6347 41.4071 88.8648 42.1188 89.3972C42.8305 89.9295 43.3056 90.7216 43.4418 91.6027C43.578 92.4838 43.3644 93.3834 42.8469 94.1077C42.3295 94.832 41.5497 95.323 40.6756 95.475H40.6769Z" fill="#000070"/>
</g>
<path d="M47.5272 35.3894C48.1767 26.1447 49.6686 17.3522 52.4527 9.26345C53.701 5.639 58.1562 4.35719 61.1162 6.78142C66.5897 11.2627 71.3832 16.0613 75.4968 21.1772" fill="#8E8EB2"/>
<g opacity="0.55">
<path d="M75.4968 21.1772L72.8717 22.51C68.9241 17.7128 64.3669 13.2032 59.2001 8.98128C57.2347 7.37305 54.613 7.39685 52.705 8.65827C54.2138 5.50303 58.3308 4.49662 61.1182 6.78145C66.5904 11.2627 71.3832 16.0613 75.4968 21.1772Z" fill="white"/>
</g>
<path d="M113.96 20.4632C117.353 13.3911 121.338 7.09765 126.578 2.48379C128.533 0.763367 131.541 1.06257 133.161 3.106C137.051 8.01566 139.532 13.8093 140.603 20.487" fill="#8E8EB2"/>
<g opacity="0.55">
<path d="M140.607 20.487L138.499 20.4836C137.241 14.9438 134.935 10.058 131.581 5.82603C129.958 3.78261 126.954 3.4834 124.998 5.20382C121.666 8.13806 118.841 11.7489 116.352 15.812C119.21 10.6405 122.519 6.05724 126.578 2.48379C128.533 0.763367 131.541 1.06257 133.161 3.106C137.051 8.01793 139.533 13.8116 140.607 20.487Z" fill="white"/>
</g>
<path d="M48.0853 110.763C51.0072 109.288 51.3372 104.012 48.8223 98.9771C46.3074 93.9426 41.9 91.0567 38.9781 92.5312C36.0561 94.0056 35.7262 99.2822 38.2411 104.317C40.7559 109.351 45.1634 112.237 48.0853 110.763Z" fill="white"/>
<g opacity="0.3">
<path d="M36.3401 98.7492C34.9838 94.9499 34.2914 90.9434 34.2935 86.9069V80.321C34.2921 83.1607 34.6352 85.99 35.3151 88.7463V90.3103C35.3149 93.1547 35.6591 95.9885 36.3401 98.7492Z" fill="#000070"/>
</g>
<g opacity="0.55">
<path d="M156.496 112.625C156.22 115.966 154.793 119.106 152.46 121.502C153.531 119.654 154.178 117.589 154.355 115.457C156.611 88.4029 156.79 62.0458 154.504 36.5114C153.834 29.0381 147.586 23.3193 140.123 23.3193H78.724C78.1361 23.3183 77.5486 23.3535 76.9649 23.4247C76.921 23.4281 76.877 23.4315 76.8296 23.4383C60.9166 25.0159 48.0516 34.6176 38.336 44.1717C37.9842 44.5185 37.6425 44.8755 37.3211 45.2427C38.2235 43.8253 39.2835 42.5158 40.4807 41.3395C50.1963 31.7854 63.0614 22.1836 78.9744 20.606C79.0183 20.5992 79.0623 20.5958 79.1097 20.5924C79.6934 20.5212 80.2808 20.486 80.8688 20.487H142.268C149.73 20.487 155.979 26.2059 156.648 33.6792C158.932 59.2135 158.753 85.5707 156.496 112.625Z" fill="white"/>
</g>
<path d="M124.39 20.487C128.421 11.0097 131.955 8.80583 134.539 20.487H124.39Z" fill="#E6EBED"/>
<path d="M67.2514 23.4838C60.1492 13.3118 56.7956 14.9549 57.1907 28.4132L67.2514 23.4838Z" fill="#E6EBED"/>
<path d="M142.616 127.248H81.3728C80.6715 127.247 79.971 127.202 79.2754 127.112C64.7677 127.083 51.6516 121.468 42.3345 111.295C36.2758 104.682 32.9403 96.019 32.9403 86.9069V57.4217C32.9403 51.0194 35.5289 44.8034 40.0443 40.367C53.1374 27.4918 65.9862 20.5856 79.3235 19.2555C79.3756 19.248 79.4283 19.2432 79.4811 19.2385C80.1098 19.1635 80.7424 19.1262 81.3755 19.127H142.775C151.004 19.127 157.765 25.3307 158.503 33.5568C160.721 58.3247 160.668 84.9654 158.355 112.738C157.673 120.875 150.761 127.248 142.616 127.248ZM81.3728 21.847C80.8398 21.8462 80.3073 21.878 79.7781 21.9422C79.7569 21.9449 79.736 21.947 79.7152 21.9483L79.676 21.9517C79.6556 21.9553 79.635 21.9578 79.6144 21.9592C66.9043 23.2193 54.5812 29.8765 41.9347 42.3112C37.9382 46.2423 35.6466 51.7504 35.6466 57.4217V86.9069C35.6466 95.339 38.7284 103.343 44.3243 109.453C53.1421 119.081 65.5863 124.386 79.3641 124.392C79.4238 124.392 79.4835 124.396 79.5427 124.405C80.1482 124.486 80.7585 124.528 81.3694 124.528H142.613C149.362 124.528 155.09 119.249 155.652 112.511C157.952 84.894 158.006 58.4124 155.801 33.8009C155.192 26.9858 149.588 21.847 142.768 21.847H81.3728Z" fill="#000070"/>
<path d="M68.7256 117.747C69.9001 119.664 71.5102 121.274 73.4237 122.444C75.279 123.579 77.3775 124.251 79.544 124.405C79.7217 124.417 79.8953 124.464 80.0549 124.543C80.2144 124.623 80.3569 124.733 80.474 124.868C80.5911 125.003 80.6807 125.16 80.7376 125.329C80.7945 125.499 80.8175 125.678 80.8055 125.857C80.7935 126.035 80.7465 126.21 80.6674 126.37C80.5883 126.531 80.4785 126.674 80.3444 126.791C80.2102 126.909 80.0543 126.999 79.8855 127.056C79.7167 127.114 79.5384 127.137 79.3607 127.125C79.3085 127.121 79.2566 127.115 79.2051 127.106L79.1821 127.101C76.6924 126.621 74.353 125.55 72.3588 123.978C70.418 122.448 68.8658 120.477 67.8298 118.227C67.7771 118.109 67.771 117.975 67.8128 117.853C67.8545 117.73 67.941 117.628 68.0547 117.567C68.1685 117.506 68.301 117.491 68.4255 117.524C68.5501 117.558 68.6573 117.637 68.7256 117.747V117.747Z" fill="#000070"/>
<path d="M66.1012 35.3894C65.9812 31.6118 67.2362 27.9198 69.6309 25.0057C70.8365 23.532 72.2981 22.2904 73.9447 21.3411C75.6115 20.3803 77.4378 19.7313 79.335 19.4255H79.3397C79.4933 19.4007 79.6503 19.4066 79.8017 19.4428C79.953 19.479 80.0958 19.5448 80.2219 19.6364C80.3479 19.7281 80.4548 19.8438 80.5364 19.977C80.6179 20.1101 80.6726 20.2581 80.6972 20.4125C80.7219 20.5669 80.7161 20.7247 80.68 20.8768C80.644 21.029 80.5786 21.1725 80.4874 21.2992C80.3962 21.4259 80.2811 21.5333 80.1486 21.6153C80.0161 21.6972 79.8688 21.7522 79.7152 21.777C79.6888 21.7811 79.6597 21.7845 79.6333 21.7872C77.9833 21.9372 76.374 22.387 74.8838 23.1146C73.3721 23.852 72.0062 24.8594 70.8528 26.0876C69.6833 27.3302 68.747 28.7751 68.089 30.3526C67.4248 31.9519 67.0522 33.6582 66.9889 35.3901C66.9889 35.5084 66.9421 35.6219 66.8589 35.7055C66.7756 35.7892 66.6627 35.8362 66.545 35.8362C66.4273 35.8362 66.3144 35.7892 66.2312 35.7055C66.148 35.6219 66.1012 35.5084 66.1012 35.3901V35.3894Z" fill="#000070"/>
<g opacity="0.3">
<path d="M157.01 112.549C156.382 120.083 150.138 125.888 142.616 125.888H81.3728C80.7007 125.888 80.0295 125.843 79.3634 125.752C63.7616 125.746 51.3566 119.139 43.3291 110.374C42.9265 109.935 42.5409 109.49 42.162 109.031C41.9929 108.827 41.8271 108.616 41.6614 108.409C41.526 108.229 41.384 108.052 41.2486 107.865C41.1235 107.705 41.0051 107.542 40.8901 107.379C40.7852 107.243 40.6871 107.1 40.589 106.957C40.4401 106.75 40.2981 106.542 40.156 106.328C40.0207 106.131 39.8921 105.93 39.7636 105.73C39.7027 105.638 39.6418 105.543 39.5843 105.447C39.4963 105.305 39.4084 105.162 39.3238 105.019C39.2697 104.934 39.2155 104.849 39.1682 104.761C39.0836 104.625 38.999 104.482 38.9212 104.339C38.8421 104.207 38.7717 104.076 38.6946 103.945L38.4294 103.458C38.4138 103.43 38.3989 103.401 38.3834 103.37C38.2853 103.186 38.1905 103.003 38.0958 102.816C38.0011 102.629 37.8928 102.425 37.8015 102.228C37.7203 102.061 37.6425 101.894 37.5647 101.728C37.5518 101.706 37.5416 101.684 37.5343 101.66C37.3146 101.191 37.1071 100.718 36.9118 100.242C36.7088 99.7491 36.5183 99.2504 36.3401 98.7459C35.6598 95.985 35.3163 93.1512 35.3171 90.307V60.8218C35.3171 54.7765 37.7122 48.9658 42.0118 44.7396C49.3865 37.4907 58.5676 30.2146 69.5179 26.4371C67.5821 29.0158 66.5368 32.1591 66.541 35.3895C66.0322 60.0894 65.0234 86.8913 67.1959 109.129C67.7412 114.705 72.3494 119.001 77.9243 119.148C78.4006 119.161 78.8799 119.167 79.362 119.167C80.0281 119.257 80.6994 119.302 81.3715 119.303H142.615C150.108 119.303 156.376 113.543 157.002 106.039C158.078 93.17 158.667 80.4618 158.768 67.9143C158.877 82.5612 158.291 97.4394 157.01 112.549Z" fill="#000070"/>
</g>
<path d="M79.3871 127.112H79.362C79.0042 127.109 78.6622 126.964 78.4108 126.708C78.1594 126.452 78.0192 126.106 78.0207 125.747C78.0223 125.387 78.1656 125.042 78.4191 124.789C78.6727 124.535 79.016 124.392 79.3739 124.392C79.7317 124.392 80.075 124.535 80.3286 124.789C80.5822 125.042 80.7254 125.387 80.727 125.747C80.7286 126.106 80.5883 126.452 80.3369 126.708C80.0856 126.964 79.7435 127.109 79.3857 127.112H79.3871Z" fill="#000070"/>
<path d="M79.6117 21.9524C79.2652 21.9522 78.932 21.8183 78.6807 21.5785C78.4295 21.3386 78.2794 21.011 78.2614 20.6632C78.2433 20.3154 78.3587 19.9739 78.5838 19.7091C78.8088 19.4443 79.1263 19.2763 79.4709 19.2399C79.7077 19.2147 79.9486 19.1929 80.1888 19.1719C80.366 19.1585 80.5441 19.1803 80.7129 19.2361C80.8817 19.2918 81.038 19.3805 81.1727 19.497C81.3074 19.6134 81.418 19.7554 81.4981 19.9149C81.5783 20.0743 81.6264 20.248 81.6397 20.4261C81.653 20.6042 81.6313 20.7832 81.5758 20.9529C81.5203 21.1226 81.4321 21.2796 81.3162 21.415C81.2003 21.5505 81.0591 21.6616 80.9004 21.7421C80.7418 21.8227 80.569 21.871 80.3918 21.8844C80.1786 21.9007 79.9655 21.9198 79.7558 21.9422C79.7077 21.9497 79.6597 21.9524 79.6117 21.9524Z" fill="#000070"/>
<g opacity="0.2">
<path d="M146.896 104.58C146.896 104.58 146.868 105.23 146.737 106.277C145.345 107.313 143.658 107.871 141.926 107.868H85.3646C84.5891 107.869 83.8177 107.757 83.0744 107.535C82.2079 106.772 81.5139 105.831 81.0389 104.776C80.564 103.721 80.3191 102.576 80.3207 101.418V41.8971C80.3185 40.647 80.6045 39.4134 81.1563 38.293C92.428 75.3909 114.747 96.9166 146.896 104.58Z" fill="#000070"/>
</g>
<path d="M141.925 109.249H85.3639C80.136 109.249 75.8831 104.973 75.8831 99.719V40.1958C75.8831 34.9413 80.136 30.6668 85.3639 30.6668H141.919C144.364 30.6596 146.717 31.6048 148.483 33.3039C150.249 35.003 151.291 37.3237 151.391 39.7789C152.246 59.9983 152.249 80.3074 151.399 100.151C151.295 102.604 150.251 104.921 148.485 106.617C146.719 108.313 144.368 109.256 141.925 109.249ZM85.3639 33.4276C83.5786 33.4296 81.8669 34.1433 80.6045 35.4122C79.342 36.681 78.632 38.4013 78.63 40.1958V99.719C78.6311 101.514 79.3406 103.235 80.603 104.505C81.8654 105.774 83.5774 106.489 85.3632 106.491H141.925C143.66 106.497 145.329 105.828 146.584 104.623C147.838 103.419 148.58 101.773 148.654 100.031C149.5 80.2687 149.498 60.0364 148.647 39.8959C148.575 38.1528 147.834 36.5056 146.579 35.3001C145.324 34.0946 143.654 33.4244 141.918 33.4303L85.3639 33.4276Z" fill="#000070"/>
<path d="M51.4331 69.7877C51.1639 69.7877 50.9058 69.6802 50.7155 69.4889C50.5251 69.2977 50.4182 69.0382 50.4182 68.7677V53.8075C50.4182 53.537 50.5251 53.2775 50.7155 53.0862C50.9058 52.8949 51.1639 52.7875 51.4331 52.7875C51.7022 52.7875 51.9604 52.8949 52.1507 53.0862C52.341 53.2775 52.4479 53.537 52.4479 53.8075V68.7677C52.4479 69.0382 52.341 69.2977 52.1507 69.4889C51.9604 69.6802 51.7022 69.7877 51.4331 69.7877Z" fill="#000070"/>
<path d="M46.4718 69.7876C46.2026 69.7876 45.9445 69.6802 45.7542 69.4889C45.5638 69.2976 45.4569 69.0381 45.4569 68.7676V55.5074C45.4569 55.2369 45.5638 54.9775 45.7542 54.7862C45.9445 54.5949 46.2026 54.4874 46.4718 54.4874C46.7409 54.4874 46.9991 54.5949 47.1894 54.7862C47.3797 54.9775 47.4866 55.2369 47.4866 55.5074V68.7676C47.4866 69.0381 47.3797 69.2976 47.1894 69.4889C46.9991 69.6802 46.7409 69.7876 46.4718 69.7876Z" fill="#000070"/>
<path d="M41.5105 69.7877C41.2413 69.7877 40.9832 69.6802 40.7929 69.4889C40.6025 69.2976 40.4956 69.0382 40.4956 68.7676V56.8675C40.4956 56.597 40.6025 56.3375 40.7929 56.1462C40.9832 55.9549 41.2413 55.8475 41.5105 55.8475C41.7796 55.8475 42.0378 55.9549 42.2281 56.1462C42.4184 56.3375 42.5253 56.597 42.5253 56.8675V68.7676C42.5253 69.0382 42.4184 69.2976 42.2281 69.4889C42.0378 69.6802 41.7796 69.7877 41.5105 69.7877Z" fill="#000070"/>
<path d="M47.5286 36.7494C47.4968 36.7494 47.4609 36.7494 47.4318 36.7494C47.2543 36.7369 47.0811 36.6892 46.9219 36.6092C46.7628 36.5293 46.6209 36.4185 46.5043 36.2833C46.3878 36.1482 46.299 35.9912 46.2429 35.8215C46.1868 35.6518 46.1646 35.4726 46.1775 35.2942C46.8879 25.1839 48.5218 16.526 51.174 8.81944C51.5335 7.77209 52.1393 6.82743 52.9398 6.06572C53.7404 5.304 54.712 4.74773 55.7721 4.44414C56.8323 4.14056 57.9497 4.09863 59.0294 4.32193C60.1092 4.54523 61.1193 5.02715 61.9741 5.72676C67.522 10.2699 72.4272 15.183 76.5502 20.3238C76.7758 20.6046 76.8813 20.964 76.8433 21.323C76.8053 21.6819 76.627 22.0109 76.3476 22.2377C76.0682 22.4645 75.7106 22.5705 75.3535 22.5323C74.9964 22.4941 74.669 22.3149 74.4434 22.0341C70.438 17.0407 65.6668 12.2644 60.2617 7.83887C59.7445 7.41629 59.1336 7.12536 58.4807 6.99074C57.8277 6.85613 57.1522 6.88182 56.5112 7.06562C55.8703 7.24943 55.2829 7.58593 54.799 8.04656C54.3151 8.50719 53.9489 9.07837 53.7314 9.71161C51.1604 17.1876 49.5705 25.6191 48.877 35.4887C48.8521 35.8311 48.6992 36.1514 48.4491 36.3852C48.199 36.619 47.8702 36.7492 47.5286 36.7494Z" fill="#000070"/>
<path d="M140.605 21.847C140.284 21.8467 139.973 21.7315 139.729 21.522C139.484 21.3126 139.322 21.0226 139.271 20.7039C138.241 14.2915 135.829 8.65555 132.102 3.95329C131.829 3.60634 131.488 3.3193 131.1 3.10984C130.712 2.90039 130.286 2.77295 129.847 2.73539C129.419 2.69364 128.987 2.74059 128.577 2.87334C128.168 3.00609 127.79 3.22182 127.466 3.5072C122.889 7.53694 118.984 13.113 115.176 21.0514C115.104 21.2196 114.998 21.3713 114.866 21.4974C114.734 21.6235 114.578 21.7215 114.407 21.7854C114.236 21.8494 114.054 21.8779 113.872 21.8694C113.69 21.8609 113.511 21.8155 113.347 21.7359C113.183 21.6563 113.036 21.5442 112.916 21.4062C112.796 21.2683 112.705 21.1074 112.649 20.9332C112.592 20.7591 112.571 20.5752 112.587 20.3926C112.603 20.2101 112.655 20.0326 112.741 19.8709C116.712 11.5891 120.826 5.73831 125.686 1.45834C126.284 0.930579 126.983 0.531291 127.74 0.285015C128.497 0.0387379 129.297 -0.0493248 130.089 0.0262389C130.891 0.100391 131.669 0.336244 132.378 0.719703C133.088 1.10316 133.712 1.62636 134.216 2.25803C138.235 7.33157 140.834 13.3911 141.939 20.2701C141.996 20.6257 141.911 20.9897 141.702 21.2821C141.493 21.5746 141.176 21.7717 140.823 21.83C140.751 21.8417 140.678 21.8474 140.605 21.847Z" fill="#000070"/>
<path d="M124.39 21.677C124.194 21.6768 124.002 21.6279 123.829 21.5346C123.657 21.4412 123.51 21.3064 123.402 21.1422C123.294 20.9779 123.229 20.7894 123.211 20.5934C123.194 20.3975 123.225 20.2001 123.301 20.0192C125.944 13.8059 128.173 11.1294 130.527 11.3531C132.79 11.5646 134.384 14.3016 135.695 20.2286C135.729 20.3812 135.732 20.5389 135.705 20.6929C135.678 20.8468 135.622 20.9939 135.538 21.1258C135.455 21.2577 135.346 21.3717 135.219 21.4615C135.092 21.5512 134.948 21.6149 134.796 21.6488C134.644 21.6827 134.487 21.6863 134.334 21.6592C134.181 21.6322 134.035 21.5751 133.903 21.4912C133.772 21.4073 133.659 21.2983 133.569 21.1703C133.48 21.0424 133.417 20.898 133.383 20.7454C131.905 14.0609 130.468 13.7413 130.309 13.7229C130.138 13.71 128.535 13.7712 125.479 20.9548C125.388 21.1692 125.236 21.3519 125.042 21.4803C124.849 21.6086 124.622 21.677 124.39 21.677Z" fill="#000070"/>
<path d="M57.1914 29.6033C56.8833 29.6032 56.5873 29.4824 56.3664 29.2666C56.1454 29.0507 56.0169 28.7568 56.0081 28.4472C55.7774 20.5741 56.7753 16.696 59.2441 15.8718C61.5675 15.0973 64.336 17.2318 68.2223 22.7991C68.3137 22.9269 68.379 23.0717 68.4144 23.2251C68.4498 23.3785 68.4545 23.5374 68.4284 23.6926C68.4022 23.8478 68.3457 23.9963 68.262 24.1294C68.1784 24.2625 68.0693 24.3776 67.941 24.4681C67.8128 24.5585 67.668 24.6224 67.515 24.6562C67.3619 24.69 67.2038 24.6929 67.0497 24.6648C66.8955 24.6367 66.7485 24.5781 66.617 24.4925C66.4856 24.4068 66.3723 24.2958 66.2839 24.1659C61.8056 17.7521 60.1636 18.0723 59.9917 18.1301C59.6751 18.2362 58.1082 19.227 58.3768 28.3772C58.3857 28.6928 58.2695 28.999 58.0538 29.2286C57.8381 29.4581 57.5406 29.5921 57.2266 29.6012L57.1914 29.6033Z" fill="#000070"/>
<path d="M83.9986 124.741C86.0405 111.015 102.846 111.005 104.905 124.721C105.043 125.66 104.872 126.62 104.416 127.451C103.96 128.283 103.245 128.942 102.381 129.327C97.8792 131.333 90.9849 131.43 86.3896 129.282C84.6785 128.483 83.7205 126.614 83.9986 124.741Z" fill="white"/>
<g opacity="0.2">
<path d="M104.556 127.163C104.118 128.128 103.343 128.898 102.378 129.326C97.8785 131.332 90.9842 131.434 86.3869 129.282C84.6785 128.483 83.7212 126.613 83.9986 124.743C84.8105 119.272 87.9701 115.981 91.6067 114.872C90.1283 116.548 89.0357 118.837 88.6061 121.74C88.3287 123.614 89.2826 125.48 90.9944 126.283C94.8238 128.068 100.25 128.299 104.556 127.163Z" fill="#000070"/>
</g>
<g opacity="0.55">
<path d="M103.048 128.948C103.244 128.325 103.296 127.664 103.2 127.017C102.821 124.494 101.941 122.434 100.747 120.843C97.4049 120.788 95.179 119.451 94.0694 116.831C91.0722 116.423 87.9362 117.412 85.6291 119.809C90.4328 111.282 103.132 112.917 104.901 124.722C105.023 125.531 104.913 126.358 104.585 127.106C104.257 127.854 103.724 128.493 103.048 128.948Z" fill="white"/>
</g>
<path d="M94.3914 132.212C91.3056 132.212 88.2346 131.645 85.8159 130.512C83.5899 129.471 82.2923 127.015 82.6603 124.537C83.8376 116.626 89.4261 113.082 94.4455 113.079H94.4516C99.4671 113.079 105.056 116.615 106.24 124.515C106.421 125.75 106.195 127.01 105.596 128.102C104.998 129.195 104.059 130.061 102.925 130.568C100.471 131.665 97.4265 132.212 94.3914 132.212ZM85.3369 124.942C85.1447 126.234 85.8105 127.512 86.9606 128.048C91.0525 129.961 97.5828 129.977 101.833 128.083C102.426 127.819 102.916 127.368 103.229 126.797C103.543 126.226 103.661 125.568 103.567 124.924C102.62 118.622 98.3108 115.802 94.455 115.802H94.4496C90.5931 115.802 86.2786 118.631 85.3396 124.942H85.3369Z" fill="#000070"/>
<path d="M87.6615 128.736C88.8523 128.577 89.9287 128.239 90.627 127.46C90.9943 127.038 91.2555 126.533 91.3888 125.988C91.543 125.412 91.6012 124.784 91.6134 124.144V124.127C91.6157 124.016 91.659 123.91 91.735 123.829C91.811 123.748 91.9142 123.699 92.0245 123.69C92.1348 123.682 92.2443 123.715 92.3316 123.783C92.419 123.851 92.4779 123.95 92.497 124.059C92.6271 124.762 92.6714 125.479 92.6289 126.192C92.5804 126.972 92.3497 127.729 91.9558 128.402C91.5424 129.101 90.928 129.679 90.2643 130.102C89.6211 130.502 88.9309 130.82 88.2096 131.049L88.1899 131.056C87.8904 131.156 87.5635 131.132 87.2812 130.99C86.9989 130.848 86.7843 130.599 86.6846 130.298C86.5849 129.997 86.6083 129.669 86.7497 129.385C86.891 129.101 87.1387 128.885 87.4383 128.785C87.5111 128.762 87.5858 128.746 87.6615 128.736Z" fill="#000070"/>
<path d="M133.05 124.741C135.092 111.015 151.897 111.005 153.956 124.721C154.095 125.66 153.923 126.62 153.467 127.451C153.011 128.283 152.297 128.942 151.433 129.327C146.931 131.333 140.036 131.43 135.441 129.282C133.73 128.483 132.772 126.614 133.05 124.741Z" fill="white"/>
<g opacity="0.2">
<path d="M153.607 127.163C153.169 128.128 152.394 128.898 151.429 129.326C146.929 131.332 140.035 131.434 135.438 129.282C133.729 128.483 132.772 126.613 133.049 124.743C133.861 119.272 137.021 115.981 140.658 114.872C139.179 116.548 138.09 118.837 137.657 121.74C137.38 123.614 138.337 125.48 140.045 126.283C143.875 128.068 149.301 128.299 153.607 127.163Z" fill="#000070"/>
</g>
<g opacity="0.55">
<path d="M152.098 128.948C152.295 128.325 152.347 127.664 152.251 127.017C151.872 124.494 150.992 122.434 149.798 120.843C146.456 120.788 144.23 119.451 143.12 116.831C140.123 116.423 136.987 117.412 134.68 119.809C139.484 111.282 152.183 112.917 153.952 124.722C154.074 125.531 153.964 126.358 153.636 127.106C153.308 127.854 152.774 128.493 152.098 128.948Z" fill="white"/>
</g>
<path d="M95.8427 129.475C96.8961 128.895 97.7777 128.188 98.1478 127.208C98.3389 126.681 98.4008 126.116 98.3284 125.559C98.2648 124.966 98.093 124.359 97.8744 123.758L97.8683 123.742C97.8309 123.638 97.8335 123.523 97.8756 123.42C97.9177 123.317 97.9963 123.234 98.0962 123.186C98.196 123.139 98.3099 123.13 98.4158 123.162C98.5216 123.194 98.6118 123.265 98.6687 123.36C99.0429 123.968 99.3422 124.62 99.5598 125.3C99.7949 126.044 99.8524 126.834 99.7276 127.605C99.5923 128.406 99.2296 129.169 98.7655 129.802C98.31 130.409 97.7811 130.957 97.1911 131.434L97.1749 131.447C96.9308 131.642 96.6206 131.733 96.3108 131.7C96.0009 131.668 95.7161 131.514 95.5175 131.273C95.3189 131.032 95.2222 130.722 95.2482 130.41C95.2742 130.098 95.4208 129.809 95.6566 129.604C95.7149 129.556 95.7771 129.513 95.8427 129.475Z" fill="#000070"/>
<path d="M143.443 132.212C140.357 132.212 137.286 131.645 134.867 130.512C132.641 129.471 131.344 127.015 131.712 124.537C132.889 116.626 138.478 113.082 143.497 113.079H143.503C148.519 113.079 154.107 116.615 155.292 124.515C155.473 125.75 155.246 127.01 154.648 128.102C154.049 129.195 153.111 130.061 151.977 130.568C149.523 131.665 146.478 132.212 143.443 132.212ZM134.388 124.942C134.196 126.234 134.862 127.512 136.012 128.048C140.104 129.961 146.634 129.977 150.885 128.083C151.477 127.819 151.968 127.368 152.281 126.797C152.594 126.226 152.713 125.568 152.619 124.924C151.671 118.622 147.362 115.802 143.507 115.802H143.501C139.645 115.802 135.33 118.631 134.391 124.942H134.388Z" fill="#000070"/>
<path d="M136.713 128.736C137.904 128.577 138.98 128.239 139.679 127.46C140.046 127.038 140.307 126.533 140.44 125.988C140.595 125.412 140.653 124.784 140.665 124.144V124.127C140.667 124.016 140.711 123.91 140.787 123.829C140.863 123.748 140.966 123.699 141.076 123.69C141.186 123.682 141.296 123.715 141.383 123.783C141.471 123.851 141.529 123.95 141.549 124.059C141.679 124.762 141.723 125.479 141.68 126.192C141.632 126.972 141.401 127.729 141.007 128.402C140.594 129.101 139.98 129.679 139.316 130.102C138.673 130.502 137.982 130.82 137.261 131.049L137.241 131.056C136.942 131.156 136.615 131.132 136.333 130.99C136.05 130.848 135.836 130.599 135.736 130.298C135.636 129.997 135.66 129.669 135.801 129.385C135.943 129.101 136.19 128.885 136.49 128.785C136.563 128.762 136.637 128.746 136.713 128.736Z" fill="#000070"/>
<path d="M144.894 129.475C145.948 128.895 146.829 128.188 147.199 127.208C147.39 126.681 147.452 126.116 147.38 125.559C147.316 124.966 147.145 124.359 146.926 123.758L146.92 123.742C146.882 123.638 146.885 123.523 146.927 123.42C146.969 123.317 147.048 123.234 147.148 123.186C147.248 123.139 147.361 123.13 147.467 123.162C147.573 123.194 147.663 123.265 147.72 123.36C148.094 123.968 148.394 124.62 148.611 125.3C148.846 126.044 148.904 126.834 148.779 127.605C148.644 128.406 148.281 129.169 147.817 129.802C147.362 130.409 146.833 130.957 146.243 131.434L146.226 131.447C145.982 131.642 145.672 131.733 145.362 131.7C145.052 131.668 144.768 131.514 144.569 131.273C144.37 131.032 144.274 130.722 144.3 130.41C144.326 130.098 144.472 129.809 144.708 129.604C144.766 129.556 144.829 129.513 144.894 129.475Z" fill="#000070"/>
<path d="M88.4291 56.5883C88.2498 56.6366 88.0615 56.6417 87.8796 56.6033C87.6977 56.565 87.5272 56.4841 87.382 56.3674C87.2367 56.2506 87.1208 56.1012 87.0436 55.9313C86.9664 55.7614 86.93 55.5757 86.9374 55.3893C87.1078 50.9929 91.2515 49.2701 91.4298 49.1984C91.7197 49.0855 92.0425 49.0918 92.3284 49.216C92.6143 49.3401 92.8403 49.5722 92.9576 49.862C93.0749 50.1518 93.0741 50.476 92.9553 50.7646C92.8365 51.0532 92.6093 51.2829 92.3228 51.4041C92.1931 51.4586 89.4145 52.6509 89.304 55.488C89.2944 55.7415 89.2043 55.985 89.0469 56.1829C88.8895 56.3809 88.673 56.523 88.4291 56.5883Z" fill="#000070"/>
<path d="M142.625 55.7536C142.396 55.7538 142.172 55.6872 141.979 55.5618C141.787 55.4363 141.636 55.2575 141.543 55.0471C140.376 52.4155 137.266 52.3719 137.235 52.3713C136.921 52.3699 136.62 52.2432 136.399 52.0191C136.178 51.795 136.054 51.4917 136.056 51.1761C136.057 50.8605 136.183 50.5584 136.406 50.3362C136.629 50.1139 136.931 49.9899 137.245 49.9912C137.435 49.9912 141.923 50.0592 143.706 54.0794C143.786 54.2607 143.819 54.4592 143.804 54.657C143.788 54.8547 143.724 55.0454 143.616 55.2118C143.509 55.3781 143.361 55.5148 143.188 55.6094C143.015 55.704 142.82 55.7536 142.623 55.7536H142.625Z" fill="#000070"/>
<g opacity="0.3">
<path d="M29.9363 125.304C27.2909 127.571 23.3296 129.098 18.4819 129.713C18.3395 129.733 18.196 129.742 18.0523 129.741C17.1925 129.74 16.3654 129.41 15.739 128.818C15.1127 128.226 14.7341 127.416 14.6803 126.554C14.6264 125.691 14.9013 124.84 15.4491 124.174C15.997 123.508 16.7765 123.077 17.6295 122.968C19.304 122.757 20.8195 122.414 22.1219 121.958C33.353 121.645 30.4945 111.972 30.4945 111.972C32.0508 113.564 32.9696 115.676 33.0756 117.905C33.2279 120.765 32.0844 123.461 29.9363 125.304Z" fill="#000070"/>
</g>
<path d="M119.668 76.1219C119.668 77.3392 117.994 78.3218 115.936 78.3163C113.877 78.3109 112.21 77.3208 112.214 76.1036C112.219 74.8864 113.886 74.785 115.945 74.7905C118.004 74.7959 119.672 74.9047 119.668 76.1219Z" fill="#000070"/>
<path d="M108.005 84.6495C107.965 83.66 108.159 82.5822 108.811 81.6452C109.152 81.1735 109.593 80.7826 110.1 80.5C110.619 80.2217 111.19 80.0569 111.776 80.0166C112.939 79.9234 114.07 80.277 115.024 80.8747C115.502 81.18 115.935 81.5523 116.309 81.9804L116.576 82.3163L116.699 82.4931L116.761 82.5815C116.779 82.6101 116.81 82.6536 116.792 82.6251C116.765 82.582 116.727 82.5465 116.683 82.5219C116.638 82.4974 116.588 82.4845 116.537 82.4845C116.486 82.4845 116.436 82.4974 116.391 82.5219C116.347 82.5465 116.309 82.582 116.282 82.6251C116.264 82.6536 116.294 82.6101 116.313 82.5815L116.375 82.4931L116.497 82.3163C116.584 82.2026 116.675 82.091 116.768 81.9818C117.141 81.5531 117.574 81.1808 118.053 80.8761C119.006 80.2777 120.137 79.9241 121.301 80.0186C121.887 80.059 122.458 80.2237 122.976 80.5021C123.482 80.7843 123.921 81.175 124.261 81.6465C124.914 82.5829 125.107 83.6607 125.068 84.6495C125.065 84.7214 125.037 84.79 124.989 84.8432C124.941 84.8964 124.875 84.9309 124.804 84.9405C124.733 84.9502 124.661 84.9344 124.6 84.896C124.54 84.8576 124.495 84.7989 124.473 84.7304L124.473 84.7209C124.197 83.8464 123.823 83.0337 123.243 82.5169C122.687 81.9845 121.976 81.7689 121.25 81.8097C120.525 81.8505 119.789 82.1341 119.177 82.5727C118.871 82.7914 118.595 83.05 118.357 83.3418L118.187 83.5635L118.001 83.8355C117.836 84.0719 117.617 84.2649 117.363 84.3981C117.108 84.5314 116.825 84.601 116.538 84.601C116.251 84.601 115.968 84.5314 115.713 84.3981C115.459 84.2649 115.24 84.0719 115.075 83.8355L114.889 83.5635L114.719 83.3425C114.481 83.0508 114.205 82.7923 113.899 82.5741C113.29 82.1355 112.552 81.8437 111.826 81.8118C111.1 81.7798 110.391 81.9859 109.834 82.5183C109.255 83.0337 108.88 83.847 108.604 84.7209L108.604 84.7297C108.582 84.7987 108.537 84.8578 108.476 84.8966C108.416 84.9354 108.343 84.9515 108.272 84.9419C108.201 84.9323 108.135 84.8977 108.087 84.8442C108.038 84.7907 108.01 84.7217 108.008 84.6495L108.005 84.6495Z" fill="#000070"/>
<path d="M143.154 71.1698C143.168 65.4385 139.535 60.7833 135.04 60.7723C130.544 60.7612 126.889 65.3985 126.875 71.1299C126.861 76.8612 130.494 81.5164 134.989 81.5274C139.485 81.5385 143.14 76.9012 143.154 71.1698Z" fill="white"/>
<path d="M135.005 82.5874H134.987C129.916 82.5745 125.805 77.4336 125.82 71.1272C125.835 64.8208 129.962 59.7119 135.021 59.7119H135.039C140.109 59.7248 144.221 64.8657 144.205 71.1721C144.193 77.471 140.066 82.5874 135.005 82.5874ZM135.023 61.8315C131.122 61.8315 127.941 66 127.928 71.1327C127.916 76.2654 131.085 80.4583 134.991 80.4678H135.005C138.906 80.4678 142.087 76.2994 142.099 71.1667C142.112 66.034 138.944 61.841 135.037 61.8315H135.023Z" fill="#000070"/>
<path d="M139.874 71.9705C139.874 67.2914 136.954 63.4983 133.353 63.4983C129.751 63.4983 126.831 67.2914 126.831 71.9705C126.831 76.6496 129.751 80.4427 133.353 80.4427C136.954 80.4427 139.874 76.6496 139.874 71.9705Z" fill="#000070"/>
<path d="M136.411 69.1028C136.411 67.8613 135.727 66.8547 134.884 66.8547C134.04 66.8547 133.356 67.8613 133.356 69.1028C133.356 70.3444 134.04 71.351 134.884 71.351C135.727 71.351 136.411 70.3444 136.411 69.1028Z" fill="white"/>
<path d="M105.308 71.0805C105.322 65.3491 101.689 60.6939 97.1937 60.6829C92.6982 60.6719 89.0426 65.3091 89.0287 71.0405C89.0147 76.7719 92.6478 81.427 97.1433 81.4381C101.639 81.4491 105.294 76.8119 105.308 71.0805Z" fill="white"/>
<path d="M97.1559 82.4977H97.1376C94.6343 82.4916 92.2981 81.2628 90.562 79.0385C88.8841 76.8884 87.964 74.0466 87.9708 71.0376C87.9863 64.7386 92.1134 59.6229 97.1722 59.6229H97.1904C99.6937 59.629 102.029 60.8578 103.766 63.0821C105.444 65.2323 106.364 68.0741 106.357 71.0831C106.346 77.3814 102.219 82.4977 97.1559 82.4977ZM89.0255 71.0403H90.0796C90.0735 73.5753 90.834 75.9499 92.221 77.7275C93.5505 79.4275 95.298 80.3707 97.1424 80.3754H97.1559C101.057 80.3754 104.238 76.207 104.251 71.075C104.257 68.5399 103.497 66.1646 102.109 64.3877C100.78 62.6877 99.0327 61.7439 97.1877 61.7398H97.1749C93.2737 61.7398 90.0918 65.9076 90.0796 71.0403H89.0255Z" fill="#000070"/>
<path d="M105.021 72.0806C105.033 67.4015 102.122 63.6012 98.5205 63.5924C94.9187 63.5835 91.9898 67.3695 91.9784 72.0485C91.967 76.7276 94.8776 80.5279 98.4793 80.5368C102.081 80.5456 105.01 76.7597 105.021 72.0806Z" fill="#000070"/>
<path d="M98.507 69.1855C98.51 67.944 97.8285 66.9358 96.9847 66.9337C96.141 66.9316 95.4546 67.9364 95.4516 69.178C95.4486 70.4196 96.1301 71.4278 96.9738 71.4299C97.8175 71.432 98.504 70.4271 98.507 69.1855Z" fill="white"/>
<g opacity="0.55">
<path d="M177.33 166.363V171.826C177.331 172.933 176.952 174.006 176.259 174.865C175.565 175.725 174.598 176.318 173.521 176.546C174.094 176.096 174.557 175.521 174.876 174.864C175.194 174.207 175.359 173.485 175.358 172.755V167.291C175.358 166.314 175.063 165.361 174.512 164.557L160.101 143.416C159.66 142.771 159.069 142.244 158.38 141.88C157.691 141.516 156.925 141.325 156.146 141.325H96.3014C95.9682 141.323 95.6358 141.359 95.3102 141.43C96.1528 140.758 97.1978 140.393 98.2736 140.396H158.12C158.898 140.397 159.665 140.587 160.354 140.952C161.043 141.316 161.633 141.843 162.074 142.487L176.485 163.629C177.036 164.433 177.33 165.386 177.33 166.363Z" fill="white"/>
</g>
<g opacity="0.3">
<path d="M115.283 166.15C115.624 166.567 115.874 167.051 116.018 167.571C116.162 168.091 116.196 168.636 116.118 169.17L115.036 176.624C115.036 176.624 115.029 176.634 115.019 176.651H113.368C112.589 176.651 111.822 176.461 111.132 176.097C110.443 175.732 109.852 175.205 109.41 174.56L94.999 153.415C94.4478 152.611 94.1528 151.658 94.1533 150.682V145.221C94.1528 144.587 94.2766 143.959 94.5179 143.373C94.7591 142.787 95.1129 142.254 95.5591 141.806C96.0052 141.357 96.535 141.002 97.118 140.759C97.7011 140.517 98.326 140.392 98.957 140.393H107.57L112.441 162.663L115.283 166.15Z" fill="#000070"/>
</g>
<path d="M173.207 177.842H113.363C112.392 177.843 111.436 177.605 110.577 177.151C109.718 176.697 108.982 176.039 108.432 175.235L94.0207 154.087C93.3338 153.085 92.9668 151.896 92.9686 150.68V145.22C92.9704 143.625 93.6015 142.096 94.7235 140.968C95.8455 139.84 97.3668 139.206 98.9536 139.204H158.798C159.768 139.204 160.725 139.442 161.584 139.896C162.443 140.35 163.179 141.007 163.729 141.811L178.14 162.954C178.828 163.956 179.195 165.145 179.193 166.362V171.824C179.192 173.42 178.561 174.95 177.438 176.078C176.316 177.206 174.794 177.841 173.207 177.842ZM98.9509 141.586C97.9919 141.588 97.0725 141.971 96.3945 142.652C95.7164 143.334 95.335 144.258 95.3339 145.222V150.682C95.3327 151.417 95.5548 152.136 95.9705 152.742L110.382 173.89C110.714 174.375 111.158 174.772 111.677 175.047C112.195 175.321 112.772 175.464 113.358 175.464H173.202C174.161 175.463 175.081 175.08 175.759 174.398C176.437 173.717 176.818 172.792 176.82 171.828V166.366C176.821 165.63 176.598 164.911 176.182 164.306L161.771 143.162C161.439 142.677 160.995 142.28 160.476 142.006C159.957 141.732 159.38 141.589 158.794 141.588L98.9509 141.586Z" fill="#000070"/>
<path d="M110.793 155.489V162.667L99.5016 145.136V137.959L110.793 155.489Z" fill="white"/>
<g opacity="0.3">
<path d="M110.793 155.489V162.667L99.5016 145.136V137.959L110.793 155.489Z" fill="#000070"/>
</g>
<path d="M175.358 155.489V162.667H110.793V155.489L99.5016 137.959H164.069L175.358 155.489Z" fill="white"/>
<g opacity="0.55">
<path d="M175.359 155.489V162.667H173.776V157.556L170.214 151.957H109.055L108.273 150.597L169.168 150.314L166.591 146.261H104.938L104.529 144.548L165.224 144.276L162.487 140.026H100.834L99.5016 137.959H164.07L175.359 155.489Z" fill="white"/>
</g>
<path d="M110.793 163.821C110.601 163.821 110.413 163.773 110.244 163.681C110.076 163.588 109.933 163.455 109.829 163.294L98.5368 145.763C98.4165 145.576 98.3525 145.359 98.3528 145.136V137.959C98.3538 137.71 98.4345 137.468 98.583 137.27C98.7314 137.071 98.9397 136.925 99.1769 136.855C99.4141 136.784 99.6676 136.793 99.8998 136.878C100.132 136.964 100.33 137.123 100.466 137.331L111.757 154.862C111.877 155.049 111.942 155.266 111.942 155.489V162.667C111.942 162.973 111.821 163.267 111.605 163.484C111.389 163.701 111.097 163.823 110.792 163.823L110.793 163.821ZM100.65 144.795L109.644 158.759V155.831L100.65 141.867V144.795Z" fill="#000070"/>
<path d="M175.358 163.821H110.793C110.488 163.821 110.195 163.7 109.98 163.483C109.764 163.266 109.643 162.972 109.643 162.665V155.831L98.5368 138.588C98.4251 138.413 98.3622 138.212 98.3546 138.004C98.347 137.797 98.3951 137.591 98.4937 137.409C98.5924 137.227 98.738 137.075 98.9154 136.969C99.0927 136.863 99.2952 136.806 99.5016 136.806H164.069C164.261 136.806 164.449 136.854 164.618 136.946C164.786 137.038 164.929 137.171 165.034 137.333L176.322 154.864C176.442 155.051 176.506 155.268 176.506 155.491V162.667C176.506 162.973 176.385 163.266 176.17 163.483C175.954 163.699 175.662 163.821 175.358 163.821ZM111.942 161.509H174.209V155.827L163.445 139.11H101.614L111.757 154.859C111.877 155.046 111.942 155.264 111.942 155.486V161.509Z" fill="#000070"/>
<path d="M175.359 156.642H110.794C110.489 156.642 110.197 156.521 109.981 156.304C109.765 156.087 109.644 155.793 109.644 155.486C109.644 155.18 109.765 154.886 109.981 154.669C110.197 154.452 110.489 154.33 110.794 154.33H175.359C175.664 154.33 175.957 154.452 176.172 154.669C176.388 154.886 176.509 155.18 176.509 155.486C176.509 155.793 176.388 156.087 176.172 156.304C175.957 156.521 175.664 156.642 175.359 156.642Z" fill="#000070"/>
<path d="M167.79 145.258H103.566C103.434 145.261 103.303 145.238 103.181 145.19C103.058 145.142 102.947 145.07 102.853 144.977C102.758 144.885 102.683 144.775 102.632 144.653C102.581 144.531 102.555 144.4 102.555 144.268C102.555 144.136 102.581 144.005 102.632 143.883C102.683 143.761 102.758 143.651 102.853 143.559C102.947 143.467 103.058 143.394 103.181 143.346C103.303 143.298 103.434 143.275 103.566 143.278H167.79C168.047 143.285 168.291 143.392 168.47 143.577C168.649 143.762 168.749 144.01 168.749 144.268C168.749 144.526 168.649 144.774 168.47 144.959C168.291 145.144 168.047 145.251 167.79 145.258Z" fill="#000070"/>
<path d="M171.994 151.039H107.771C107.51 151.039 107.26 150.935 107.075 150.749C106.891 150.564 106.787 150.312 106.787 150.05C106.787 149.787 106.891 149.536 107.075 149.35C107.26 149.165 107.51 149.06 107.771 149.06H171.994C172.255 149.06 172.505 149.165 172.69 149.35C172.874 149.536 172.978 149.787 172.978 150.05C172.978 150.312 172.874 150.564 172.69 150.749C172.505 150.935 172.255 151.039 171.994 151.039Z" fill="#000070"/>
<path d="M119.564 156.478C119.399 156.478 119.237 156.437 119.093 156.358C118.948 156.279 118.825 156.165 118.736 156.026L107.445 138.496C107.372 138.387 107.32 138.265 107.295 138.135C107.269 138.006 107.269 137.873 107.295 137.744C107.321 137.615 107.373 137.492 107.447 137.383C107.52 137.274 107.615 137.181 107.725 137.11C107.835 137.038 107.959 136.989 108.088 136.966C108.217 136.943 108.349 136.946 108.477 136.975C108.605 137.004 108.726 137.058 108.833 137.135C108.939 137.211 109.03 137.309 109.099 137.421L120.389 154.95C120.486 155.099 120.54 155.272 120.547 155.45C120.554 155.628 120.513 155.804 120.428 155.96C120.344 156.117 120.219 156.247 120.067 156.338C119.915 156.429 119.741 156.478 119.564 156.478Z" fill="#000070"/>
<path d="M127.656 156.478C127.491 156.478 127.329 156.437 127.185 156.358C127.04 156.279 126.918 156.165 126.828 156.026L115.538 138.496C115.467 138.387 115.419 138.265 115.396 138.138C115.372 138.01 115.374 137.879 115.401 137.752C115.428 137.624 115.48 137.504 115.553 137.397C115.627 137.29 115.72 137.199 115.829 137.128C115.938 137.057 116.059 137.009 116.186 136.985C116.313 136.962 116.444 136.964 116.57 136.991C116.697 137.018 116.816 137.07 116.923 137.144C117.029 137.218 117.12 137.312 117.191 137.421L128.481 154.95C128.577 155.099 128.632 155.272 128.639 155.45C128.645 155.628 128.604 155.804 128.52 155.96C128.435 156.117 128.311 156.247 128.159 156.338C128.007 156.429 127.833 156.478 127.656 156.478Z" fill="#000070"/>
<path d="M135.694 156.478C135.529 156.478 135.367 156.437 135.222 156.358C135.078 156.279 134.955 156.165 134.866 156.026L123.575 138.496C123.433 138.276 123.384 138.008 123.439 137.752C123.494 137.495 123.648 137.271 123.867 137.128C124.086 136.985 124.352 136.936 124.608 136.991C124.863 137.046 125.086 137.2 125.228 137.421L136.519 154.95C136.615 155.099 136.669 155.272 136.676 155.45C136.683 155.628 136.642 155.804 136.558 155.96C136.473 156.117 136.348 156.247 136.196 156.338C136.044 156.429 135.871 156.478 135.694 156.478Z" fill="#000070"/>
<path d="M140.347 151.039C140.182 151.039 140.021 150.998 139.876 150.919C139.731 150.84 139.609 150.726 139.52 150.587L131.732 138.496C131.659 138.387 131.607 138.265 131.582 138.135C131.556 138.006 131.556 137.873 131.582 137.744C131.608 137.615 131.66 137.492 131.733 137.383C131.807 137.274 131.902 137.181 132.012 137.11C132.122 137.038 132.245 136.989 132.375 136.966C132.504 136.943 132.636 136.946 132.764 136.975C132.892 137.004 133.013 137.058 133.12 137.135C133.226 137.211 133.317 137.309 133.386 137.421L141.173 149.511C141.269 149.661 141.324 149.833 141.331 150.011C141.337 150.189 141.296 150.365 141.212 150.522C141.127 150.678 141.002 150.809 140.85 150.9C140.698 150.99 140.524 151.039 140.347 151.039Z" fill="#000070"/>
<path d="M148.422 151.039C148.257 151.039 148.096 150.998 147.951 150.919C147.806 150.84 147.684 150.726 147.594 150.587L139.807 138.496C139.733 138.387 139.682 138.265 139.657 138.135C139.631 138.006 139.631 137.873 139.657 137.744C139.683 137.615 139.735 137.492 139.808 137.383C139.882 137.274 139.977 137.181 140.087 137.11C140.197 137.038 140.32 136.989 140.449 136.966C140.579 136.943 140.711 136.946 140.839 136.975C140.967 137.004 141.088 137.058 141.195 137.135C141.301 137.211 141.392 137.309 141.461 137.421L149.248 149.511C149.344 149.661 149.399 149.833 149.405 150.011C149.412 150.189 149.371 150.365 149.287 150.522C149.202 150.678 149.077 150.809 148.925 150.9C148.773 150.99 148.599 151.039 148.422 151.039Z" fill="#000070"/>
<path d="M159.865 156.478C159.701 156.478 159.539 156.437 159.394 156.358C159.25 156.279 159.127 156.165 159.038 156.026L147.747 138.496C147.673 138.387 147.622 138.265 147.596 138.135C147.57 138.006 147.571 137.873 147.597 137.744C147.623 137.615 147.674 137.492 147.748 137.383C147.822 137.274 147.917 137.181 148.027 137.11C148.137 137.038 148.26 136.989 148.389 136.966C148.518 136.943 148.651 136.946 148.779 136.975C148.906 137.004 149.027 137.058 149.134 137.135C149.241 137.211 149.331 137.309 149.4 137.421L160.691 154.95C160.787 155.099 160.841 155.272 160.848 155.45C160.855 155.628 160.814 155.804 160.73 155.96C160.645 156.117 160.52 156.247 160.368 156.338C160.216 156.429 160.042 156.478 159.865 156.478Z" fill="#000070"/>
<path d="M159.778 156.478C159.613 156.478 159.451 156.437 159.306 156.358C159.162 156.279 159.039 156.165 158.95 156.026L147.659 138.496C147.517 138.276 147.468 138.008 147.523 137.752C147.578 137.495 147.731 137.271 147.951 137.128C148.17 136.985 148.436 136.936 148.692 136.991C148.947 137.046 149.17 137.2 149.312 137.421L160.603 154.95C160.699 155.099 160.753 155.272 160.76 155.45C160.767 155.628 160.726 155.804 160.642 155.96C160.557 156.117 160.432 156.247 160.28 156.338C160.128 156.429 159.955 156.478 159.778 156.478Z" fill="#000070"/>
<path d="M167.602 156.478C167.437 156.478 167.276 156.437 167.131 156.358C166.986 156.279 166.864 156.165 166.775 156.026L155.483 138.496C155.41 138.387 155.358 138.265 155.333 138.135C155.307 138.006 155.307 137.873 155.333 137.744C155.359 137.615 155.411 137.492 155.485 137.383C155.558 137.274 155.653 137.181 155.763 137.11C155.873 137.038 155.997 136.989 156.126 136.966C156.255 136.943 156.387 136.946 156.515 136.975C156.643 137.004 156.764 137.058 156.871 137.135C156.977 137.211 157.068 137.309 157.137 137.421L168.427 154.95C168.524 155.099 168.578 155.272 168.585 155.45C168.592 155.628 168.551 155.804 168.466 155.96C168.382 156.117 168.257 156.247 168.105 156.338C167.953 156.429 167.779 156.478 167.602 156.478Z" fill="#000070"/>
</g>
<defs>
<clipPath id="clip0_2_224">
<rect width="218" height="181" fill="white"/>
</clipPath>
</defs>
</svg>
