<svg width="218" height="181" viewBox="0 0 218 181" fill="none" xmlns="http://www.w3.org/2000/svg">
<g clip-path="url(#clip0_2_224)">
<g opacity="0.2">
<path d="M135.079 140.413C145.839 137.158 152.297 132.993 152.297 128.454C152.297 118.026 118.203 109.573 76.1469 109.573C34.0905 109.573 0 118.026 0 128.454C0 138.881 34.0932 147.335 76.149 147.335C78.9559 147.335 81.7239 147.297 84.4532 147.223C74.3919 150.808 68.2777 155.526 68.2777 160.696C68.2777 171.909 97.0131 180.999 132.461 180.999C167.909 180.999 196.644 171.909 196.644 160.696C196.644 149.762 169.312 140.848 135.079 140.413Z" fill="#000070"/>
</g>
<path d="M187.614 154.731C187.276 154.731 186.941 154.663 186.629 154.531C186.318 154.399 186.035 154.206 185.799 153.963C180.36 148.37 183.656 139.012 183.799 138.616C183.841 138.497 183.893 138.382 183.953 138.271C184.897 136.523 185.239 135.04 185.004 133.736C184.691 132.005 182.962 130.812 181.148 131.075C180.471 131.174 179.815 131.249 179.2 131.297C174.343 131.684 169.615 129.167 167.157 124.89C164.992 121.125 161.997 118.855 157.996 117.948C157.341 117.797 156.772 117.392 156.414 116.821C156.056 116.249 155.938 115.559 156.086 114.9C156.234 114.241 156.635 113.669 157.203 113.307C157.77 112.946 158.457 112.826 159.113 112.973C164.497 114.197 168.681 117.344 171.551 122.339C173.04 124.923 175.881 126.444 178.801 126.215C179.308 126.175 179.853 126.112 180.425 126.03C184.983 125.367 189.187 128.352 189.997 132.825C190.438 135.261 189.953 137.779 188.515 140.515C187.85 142.508 186.84 147.738 189.429 150.4C189.778 150.759 190.014 151.213 190.107 151.706C190.2 152.199 190.146 152.709 189.953 153.171C189.759 153.634 189.434 154.029 189.018 154.307C188.602 154.584 188.114 154.732 187.614 154.733L187.614 154.731Z" fill="#000070"/>
<g opacity="0.55">
<path d="M189.428 150.398C189.661 150.637 189.845 150.92 189.969 151.231C190.093 151.542 190.155 151.875 190.151 152.21C190.148 152.545 190.078 152.876 189.947 153.184C189.816 153.492 189.626 153.771 189.388 154.005C189.323 154.066 189.259 154.124 189.188 154.182C189.248 153.792 189.216 153.394 189.096 153.018C188.975 152.643 188.769 152.301 188.495 152.019C185.907 149.357 186.915 144.128 187.581 142.135C189.019 139.398 189.503 136.882 189.063 134.445C188.251 129.97 184.05 126.988 179.489 127.648C178.921 127.733 178.376 127.794 177.866 127.835C174.95 128.066 172.101 126.543 170.616 123.959C167.748 118.961 163.563 115.812 158.177 114.592C157.809 114.507 157.426 114.506 157.057 114.591C156.688 114.675 156.342 114.841 156.046 115.078C156.054 115.016 156.065 114.955 156.08 114.894C156.153 114.568 156.289 114.259 156.481 113.985C156.673 113.712 156.917 113.479 157.198 113.3C157.48 113.121 157.794 113 158.122 112.943C158.45 112.887 158.786 112.896 159.111 112.97C164.497 114.194 168.681 117.342 171.55 122.337C173.038 124.921 175.883 126.441 178.803 126.213C179.307 126.172 179.851 126.111 180.423 126.029C184.98 125.366 189.185 128.352 189.993 132.823C190.436 135.261 189.949 137.777 188.512 140.514C187.848 142.506 186.84 147.735 189.428 150.398Z" fill="white"/>
</g>
<path d="M184.096 165.922C190.242 180.287 219.588 180.882 214.344 163.457C208.086 143.907 183.712 140.321 181.784 158.522C181.786 158.522 181.751 162.188 184.096 165.922Z" fill="white"/>
<path d="M214.346 163.457C213.332 160.294 211.843 157.551 210.056 155.249C210.036 155.244 210.016 155.242 209.996 155.237C209.556 155.122 209.154 154.896 208.73 154.728C208.158 154.503 207.548 154.388 206.938 154.32C201.303 153.678 195.753 156.802 192.074 161.14C191.16 162.217 190.325 163.39 189.858 164.725C189.592 165.485 189.452 166.283 189.31 167.075C189.095 168.289 188.769 169.551 188.627 170.788C188.491 171.002 188.365 171.222 188.248 171.45C198.287 180.056 218.804 178.263 214.346 163.457Z" fill="white"/>
<g opacity="0.3">
<path d="M214.942 168.078C214.045 180.631 189.638 178.876 184.097 165.922C181.753 162.189 181.786 158.524 181.786 158.524C182.159 155.005 183.37 152.298 185.132 150.367C184.939 151.152 184.801 151.949 184.719 152.754C184.719 152.754 184.682 156.419 187.03 160.156C191.482 170.563 208.114 173.742 214.942 168.078Z" fill="#000070"/>
</g>
<g opacity="0.55">
<path d="M214.895 168.574C214.792 167.688 214.608 166.813 214.346 165.96C208.203 146.77 184.608 142.965 181.922 160.04C181.84 159.54 181.794 159.034 181.786 158.527C183.715 140.323 208.088 143.91 214.346 163.461C214.925 165.378 215.083 167.082 214.895 168.574Z" fill="white"/>
</g>
<path d="M202.801 177.822C195.047 177.822 186.244 173.826 183.045 166.481C180.591 162.523 180.598 158.677 180.6 158.513C180.601 158.475 180.603 158.437 180.607 158.399C181.386 151.041 185.822 146.237 192.473 145.547C200.627 144.701 211.461 150.566 215.472 163.091C217.404 169.512 215.056 174.616 209.196 176.766C207.269 177.474 205.08 177.822 202.801 177.822ZM182.971 158.578C182.981 158.996 183.12 162.134 185.098 165.284C185.132 165.337 185.161 165.392 185.185 165.449C188.688 173.637 200.871 177.284 208.386 174.528C213.064 172.813 214.779 169.002 213.213 163.799C209.591 152.483 199.952 147.162 192.718 147.91C187.2 148.484 183.651 152.37 182.971 158.578Z" fill="#000070"/>
<path d="M207.873 157.562C214.639 150.158 221.366 160.641 212.74 164.137L207.873 157.562Z" fill="#000070"/>
<g opacity="0.55">
<path d="M215.747 162.046C216.796 158.381 212.746 154.542 208.247 158.068L207.872 157.561C213.565 151.329 219.231 157.765 215.747 162.046Z" fill="white"/>
</g>
<path d="M212.74 165.327C212.465 165.327 212.199 165.231 211.987 165.055C211.774 164.879 211.63 164.635 211.578 164.364C211.525 164.092 211.568 163.811 211.7 163.569C211.831 163.326 212.042 163.137 212.297 163.034C214.429 162.169 215.645 160.749 215.632 159.136C215.623 157.903 214.869 156.786 213.759 156.356C212.267 155.779 210.441 156.512 208.746 158.367C208.641 158.482 208.514 158.576 208.373 158.642C208.232 158.708 208.079 158.745 207.924 158.752C207.769 158.758 207.614 158.734 207.467 158.681C207.321 158.627 207.187 158.545 207.073 158.439C206.958 158.334 206.865 158.206 206.8 158.065C206.734 157.923 206.697 157.77 206.69 157.613C206.684 157.457 206.708 157.301 206.761 157.155C206.814 157.008 206.896 156.873 207.001 156.758C210.393 153.046 213.452 153.686 214.61 154.135C216.62 154.912 217.982 156.915 218 159.117C218.02 161.72 216.219 164.013 213.182 165.241C213.041 165.298 212.891 165.327 212.74 165.327Z" fill="#000070"/>
<path d="M189.095 173.327C188.841 173.327 188.595 173.245 188.391 173.094C188.188 172.942 188.037 172.73 187.963 172.486C186.181 166.664 190.268 160.346 194.82 156.94C199.908 153.132 205.487 152.567 209.746 155.429C209.876 155.515 209.989 155.627 210.076 155.757C210.164 155.887 210.225 156.033 210.256 156.187C210.287 156.341 210.287 156.5 210.257 156.654C210.227 156.808 210.166 156.954 210.08 157.085C209.993 157.216 209.881 157.328 209.751 157.415C209.621 157.501 209.475 157.562 209.321 157.592C209.168 157.622 209.01 157.621 208.857 157.589C208.704 157.557 208.558 157.496 208.429 157.407C205.042 155.131 200.483 155.67 196.235 158.849C192.204 161.865 188.846 167.277 190.227 171.787C190.281 171.965 190.293 172.153 190.262 172.336C190.23 172.52 190.157 172.694 190.047 172.843C189.937 172.993 189.793 173.115 189.628 173.199C189.463 173.283 189.28 173.327 189.095 173.327Z" fill="#000070"/>
<path d="M200.618 156.488C200.443 156.488 200.271 156.449 200.112 156.374C199.954 156.299 199.815 156.19 199.703 156.054C194.534 149.744 188.74 148.891 188.682 148.883C188.526 148.864 188.375 148.814 188.239 148.736C188.102 148.659 187.982 148.554 187.886 148.429C187.79 148.305 187.719 148.162 187.679 148.009C187.638 147.857 187.628 147.698 187.649 147.541C187.67 147.385 187.722 147.234 187.801 147.098C187.881 146.962 187.987 146.843 188.112 146.749C188.238 146.654 188.381 146.585 188.533 146.547C188.686 146.508 188.844 146.501 188.999 146.524C189.274 146.562 195.778 147.518 201.532 154.541C201.674 154.715 201.764 154.926 201.792 155.15C201.82 155.374 201.784 155.601 201.688 155.805C201.592 156.009 201.441 156.181 201.252 156.302C201.062 156.423 200.843 156.487 200.618 156.488Z" fill="#000070"/>
<path d="M205.663 177.576C207.174 177.576 208.398 176.659 208.398 175.527C208.398 174.396 207.174 173.478 205.663 173.478C204.153 173.478 202.929 174.396 202.929 175.527C202.929 176.659 204.153 177.576 205.663 177.576Z" fill="#000070"/>
<path d="M209.92 170.532C210.761 170.532 211.443 169.847 211.443 169.002C211.443 168.157 210.761 167.472 209.92 167.472C209.08 167.472 208.398 168.157 208.398 169.002C208.398 169.847 209.08 170.532 209.92 170.532Z" fill="#000070"/>
<path d="M199.124 169.577C199.964 169.577 200.646 168.892 200.646 168.047C200.646 167.202 199.964 166.517 199.124 166.517C198.283 166.517 197.601 167.202 197.601 168.047C197.601 168.892 198.283 169.577 199.124 169.577Z" fill="#000070"/>
<path d="M193.288 165.412C184.831 161.077 193.711 151.132 199.124 158.522L193.288 165.412Z" fill="#000070"/>
<g opacity="0.55">
<path d="M199.124 158.524C198.819 158.883 198.396 159.121 197.932 159.193C197.468 159.266 196.993 159.169 196.594 158.919C193.902 157.239 190.991 158.586 189.8 160.812C189.662 156.783 195.271 153.264 199.124 158.524Z" fill="white"/>
</g>
<path d="M193.287 166.602C193.1 166.602 192.916 166.558 192.75 166.472C189.874 164.998 188.376 162.678 188.641 160.107C188.889 157.685 190.731 155.536 193.118 154.883C195.664 154.186 198.201 155.256 200.077 157.817C200.172 157.943 200.241 158.086 200.281 158.239C200.321 158.392 200.329 158.551 200.307 158.707C200.285 158.864 200.232 159.014 200.151 159.149C200.07 159.285 199.964 159.403 199.837 159.497C199.711 159.59 199.567 159.658 199.414 159.695C199.261 159.732 199.103 159.738 198.948 159.713C198.793 159.688 198.644 159.633 198.511 159.549C198.377 159.466 198.261 159.357 198.17 159.228C196.885 157.476 195.312 156.748 193.74 157.179C192.298 157.574 191.144 158.908 190.996 160.351C190.836 161.915 191.84 163.334 193.826 164.352C194.063 164.474 194.253 164.672 194.364 164.915C194.475 165.158 194.502 165.432 194.439 165.692C194.376 165.952 194.229 166.183 194.019 166.348C193.81 166.514 193.551 166.603 193.285 166.602H193.287Z" fill="#000070"/>
<path d="M40.6769 95.4733C28.2483 97.4147 21.7857 100.584 21.4474 104.891C21.718 106.486 23.0035 107.339 25.9297 108.931C26.3153 109.138 26.7043 109.352 27.0968 109.573C27.1001 109.573 27.1035 109.577 27.1069 109.577C27.7801 109.957 28.46 110.365 29.1265 110.821C29.6196 111.157 30.0776 111.542 30.4932 111.97C32.0494 113.562 32.9682 115.674 33.0743 117.903C33.2265 120.763 32.0831 123.459 29.935 125.302C27.2896 127.57 23.3282 129.096 18.4806 129.712C18.3382 129.731 18.1946 129.74 18.051 129.739C17.1912 129.738 16.364 129.408 15.7377 128.816C15.1113 128.224 14.7328 127.414 14.6789 126.552C14.6251 125.689 14.9 124.839 15.4478 124.173C15.9956 123.507 16.7752 123.075 17.6281 122.966C19.3026 122.755 20.8182 122.412 22.1206 121.956C23.538 121.47 24.7017 120.848 25.544 120.127C25.8085 119.899 26.0164 119.612 26.1509 119.289C26.2854 118.966 26.3429 118.616 26.3187 118.267C26.3041 117.903 26.2054 117.548 26.0304 117.229C25.8554 116.911 25.609 116.637 25.3106 116.431C24.5427 115.904 23.653 115.418 22.7092 114.905C19.5699 113.198 15.2736 110.858 14.6918 105.391C14.6748 105.241 14.668 105.09 14.6715 104.939C14.8203 99.3493 18.4941 95.6909 23.4602 93.2428H23.4636C28.318 90.839 34.4071 89.5708 39.637 88.7548C40.5159 88.633 41.4071 88.8631 42.1188 89.3955C42.8305 89.9278 43.3056 90.7199 43.4418 91.601C43.578 92.4821 43.3644 93.3817 42.8469 94.106C42.3295 94.8303 41.5497 95.3213 40.6756 95.4733H40.6769Z" fill="#8E8EB2"/>
<path d="M33.0756 117.903C33.0359 117.192 32.9151 116.487 32.7157 115.803C28.5176 112.981 26.32 118.266 26.32 118.266C26.3442 118.615 26.2867 118.965 26.1522 119.288C26.0177 119.611 25.8099 119.898 25.5454 120.126C24.703 120.846 23.5393 121.469 22.1219 121.955C20.8195 122.41 19.304 122.754 17.6295 122.965C16.7765 123.074 15.997 123.505 15.4491 124.171C14.9013 124.837 14.6264 125.688 14.6803 126.55C14.7341 127.413 15.1127 128.222 15.739 128.814C16.3654 129.406 17.1925 129.736 18.0523 129.738C18.196 129.739 18.3395 129.729 18.482 129.71C23.3296 129.098 27.2909 127.568 29.9363 125.3C32.0845 123.459 33.2279 120.763 33.0756 117.903Z" fill="white"/>
<path d="M18.051 131.1C16.8464 131.1 15.6874 130.638 14.8096 129.809C13.9318 128.98 13.4013 127.846 13.3261 126.638C13.2508 125.429 13.6365 124.238 14.4045 123.305C15.1725 122.372 16.2653 121.769 17.4603 121.618C20.6402 121.21 23.2694 120.292 24.6679 119.093C24.8844 118.908 24.9852 118.653 24.9689 118.339C24.9648 118.184 24.9246 118.033 24.8516 117.898C24.7786 117.762 24.6749 117.646 24.5488 117.558C23.8384 117.07 22.9771 116.601 22.0651 116.105C18.8554 114.357 14.0051 111.716 13.3468 105.537C13.3244 105.327 13.3158 105.116 13.321 104.904C13.6397 92.8287 28.3741 89.1349 39.4293 87.4063C40.0439 87.3103 40.6713 87.3368 41.2756 87.4845C41.88 87.6321 42.4495 87.898 42.9516 88.2668C43.4537 88.6357 43.8787 89.1003 44.2021 89.6342C44.5256 90.1682 44.7413 90.7609 44.8368 91.3786C44.9324 91.9963 44.906 92.6268 44.7591 93.2342C44.6122 93.8417 44.3477 94.4141 43.9807 94.9187C43.6137 95.4234 43.1514 95.8505 42.6202 96.1756C42.0889 96.5007 41.4992 96.7175 40.8846 96.8135C25.9445 99.1487 23.109 102.761 22.8201 104.82C23.0333 105.626 23.8546 106.248 26.5792 107.731C27.6617 108.321 28.7828 108.931 29.8944 109.694C32.6007 111.553 34.2522 114.517 34.4274 117.827C34.602 121.114 33.2854 124.214 30.8152 126.333C27.9675 128.774 23.7612 130.409 18.6511 131.059C18.4521 131.086 18.2517 131.099 18.051 131.1ZM40.1634 90.0719C40.0574 90.072 39.9515 90.0802 39.8468 90.0964C29.7476 91.6754 16.2919 94.9354 16.0267 104.979C16.0242 105.07 16.0278 105.161 16.0375 105.251C16.5442 110.006 20.3202 112.061 23.354 113.713C24.3289 114.244 25.2484 114.745 26.0758 115.312C26.5456 115.636 26.9342 116.064 27.2112 116.564C27.4882 117.064 27.6458 117.621 27.6718 118.193C27.7069 118.751 27.6126 119.31 27.3962 119.825C27.1798 120.341 26.8473 120.798 26.4249 121.163C24.6097 122.719 21.5468 123.839 17.8013 124.316C17.5353 124.348 17.2782 124.433 17.0449 124.565C16.8115 124.697 16.6065 124.874 16.4417 125.087C16.2768 125.299 16.1554 125.542 16.0844 125.801C16.0134 126.061 15.9942 126.332 16.0279 126.599C16.0617 126.866 16.1477 127.124 16.281 127.358C16.4143 127.591 16.5923 127.796 16.8047 127.96C17.0171 128.124 17.2598 128.244 17.5186 128.313C17.7774 128.383 18.0473 128.4 18.3128 128.364C22.8979 127.78 26.6144 126.363 29.0595 124.266C30.8829 122.702 31.8551 120.409 31.7252 117.975C31.6684 116.777 31.3355 115.608 30.7527 114.561C30.1699 113.515 29.3531 112.618 28.3667 111.943C27.3694 111.258 26.3119 110.682 25.2903 110.126C22.3323 108.516 20.5015 107.414 20.1159 105.118C20.0974 105.008 20.0924 104.896 20.101 104.785C20.4961 99.6954 27.1583 96.2097 40.4699 94.1282C40.8666 94.0661 41.2361 93.8872 41.5316 93.6141C41.8271 93.341 42.0354 92.9859 42.1302 92.5938C42.2249 92.2016 42.2018 91.7901 42.0638 91.4112C41.9258 91.0322 41.6791 90.703 41.3549 90.465C41.0097 90.2094 40.5921 90.0716 40.1634 90.0719Z" fill="#000070"/>
<g opacity="0.3">
<path d="M40.6769 95.4733C28.2483 97.4147 21.7857 100.584 21.4474 104.891C21.718 106.486 23.0035 107.339 25.9297 108.931C26.3153 109.138 26.7043 109.352 27.0968 109.573C10.4463 103.861 23.2132 93.44 23.4602 93.2428H23.4636C28.318 90.839 34.4071 89.5708 39.637 88.7548C40.5159 88.633 41.4071 88.8631 42.1188 89.3955C42.8305 89.9278 43.3056 90.7199 43.4418 91.601C43.578 92.4821 43.3644 93.3817 42.8469 94.106C42.3295 94.8303 41.5497 95.3213 40.6756 95.4733H40.6769Z" fill="#000070"/>
</g>
<path d="M47.5272 35.3877C48.1767 26.1429 49.6686 17.3504 52.4527 9.26172C53.701 5.63727 58.1562 4.35546 61.1162 6.77969C66.5897 11.2609 71.3832 16.0595 75.4968 21.1755" fill="#8E8EB2"/>
<g opacity="0.55">
<path d="M75.4968 21.1755L72.8717 22.5083C68.9241 17.7111 64.3669 13.2015 59.2001 8.97952C57.2347 7.3713 54.613 7.3951 52.705 8.65651C54.2138 5.50127 58.3308 4.49486 61.1182 6.77969C66.5904 11.2609 71.3832 16.0595 75.4968 21.1755Z" fill="white"/>
</g>
<path d="M113.96 20.4615C117.353 13.3894 121.338 7.09589 126.578 2.48203C128.533 0.76161 131.541 1.06081 133.161 3.10424C137.051 8.0139 139.532 13.8076 140.603 20.4853" fill="#8E8EB2"/>
<g opacity="0.55">
<path d="M140.607 20.4853L138.499 20.4819C137.241 14.9421 134.935 10.0562 131.581 5.82428C129.958 3.78085 126.954 3.48165 124.998 5.20207C121.666 8.13631 118.841 11.7472 116.352 15.8102C119.21 10.6387 122.519 6.05548 126.578 2.48203C128.533 0.76161 131.541 1.06081 133.161 3.10424C137.051 8.01617 139.533 13.8098 140.607 20.4853Z" fill="white"/>
</g>
<path d="M48.0853 110.761C51.0072 109.286 51.3372 104.01 48.8223 98.9754C46.3074 93.9409 41.9 91.055 38.978 92.5294C36.0561 94.0039 35.7261 99.2805 38.241 104.315C40.7559 109.349 45.1634 112.235 48.0853 110.761Z" fill="white"/>
<g opacity="0.3">
<path d="M36.3401 98.7475C34.9838 94.9481 34.2914 90.9416 34.2935 86.9051V80.3192C34.2921 83.159 34.6352 85.9883 35.3151 88.7446V90.3086C35.3149 93.1529 35.6591 95.9867 36.3401 98.7475Z" fill="#000070"/>
</g>
<g opacity="0.55">
<path d="M156.496 112.623C156.22 115.964 154.793 119.104 152.46 121.501C153.531 119.652 154.178 117.587 154.355 115.455C156.611 88.4011 156.79 62.044 154.504 36.5097C153.834 29.0364 147.586 23.3175 140.123 23.3175H78.724C78.1361 23.3165 77.5486 23.3517 76.9649 23.4229C76.921 23.4263 76.877 23.4297 76.8296 23.4365C60.9166 25.0141 48.0516 34.6159 38.336 44.17C37.9842 44.5168 37.6425 44.8738 37.3211 45.241C38.2235 43.8235 39.2835 42.514 40.4807 41.3377C50.1963 31.7836 63.0614 22.1819 78.9744 20.6043C79.0183 20.5975 79.0623 20.5941 79.1097 20.5907C79.6933 20.5195 80.2808 20.4843 80.8688 20.4853H142.268C149.73 20.4853 155.979 26.2041 156.648 33.6774C158.932 59.2118 158.752 85.5689 156.496 112.623Z" fill="white"/>
</g>
<path d="M124.39 20.4853C128.421 11.008 131.955 8.80408 134.539 20.4853H124.39Z" fill="#E6EBED"/>
<path d="M67.2514 23.4821C60.1492 13.31 56.7956 14.9532 57.1907 28.4115L67.2514 23.4821Z" fill="#E6EBED"/>
<path d="M142.616 127.247H81.3728C80.6715 127.246 79.971 127.2 79.2754 127.111C64.7677 127.081 51.6516 121.467 42.3345 111.293C36.2758 104.681 32.9403 96.0173 32.9403 86.9051V57.42C32.9403 51.0177 35.5289 44.8017 40.0443 40.3653C53.1374 27.49 65.9862 20.5839 79.3235 19.2538C79.3756 19.2463 79.4283 19.2415 79.4811 19.2368C80.1098 19.1617 80.7424 19.1245 81.3755 19.1252H142.775C151.004 19.1252 157.765 25.329 158.503 33.555C160.721 58.323 160.668 84.9637 158.355 112.737C157.673 120.873 150.761 127.247 142.616 127.247ZM81.3728 21.8453C80.8398 21.8445 80.3073 21.8763 79.7781 21.9405C79.7569 21.9432 79.736 21.9452 79.7152 21.9466L79.676 21.95C79.6556 21.9535 79.635 21.956 79.6144 21.9575C66.9043 23.2175 54.5812 29.8748 41.9347 42.3095C37.9382 46.2406 35.6466 51.7487 35.6466 57.42V86.9051C35.6466 95.3372 38.7284 103.342 44.3243 109.451C53.1421 119.079 65.5863 124.385 79.3641 124.391C79.4238 124.391 79.4835 124.395 79.5427 124.403C80.1482 124.485 80.7585 124.526 81.3694 124.527H142.613C149.362 124.527 155.09 119.248 155.652 112.51C157.952 84.8923 158.006 58.4107 155.801 33.7992C155.192 26.9841 149.588 21.8453 142.768 21.8453H81.3728Z" fill="#000070"/>
<path d="M68.7256 117.745C69.9001 119.662 71.5102 121.272 73.4238 122.442C75.279 123.577 77.3776 124.249 79.544 124.403C79.7217 124.415 79.8953 124.462 80.0549 124.542C80.2144 124.621 80.3569 124.732 80.474 124.866C80.5911 125.001 80.6807 125.158 80.7376 125.328C80.7945 125.497 80.8175 125.676 80.8055 125.855C80.7935 126.034 80.7465 126.208 80.6674 126.368C80.5883 126.529 80.4785 126.672 80.3444 126.79C80.2102 126.907 80.0543 126.997 79.8855 127.055C79.7167 127.112 79.5384 127.135 79.3607 127.123C79.3085 127.119 79.2566 127.113 79.2051 127.104L79.1821 127.099C76.6925 126.62 74.353 125.549 72.3588 123.976C70.418 122.446 68.8658 120.475 67.8298 118.226C67.7771 118.107 67.771 117.973 67.8128 117.851C67.8545 117.728 67.941 117.626 68.0547 117.565C68.1685 117.504 68.301 117.489 68.4255 117.522C68.5501 117.556 68.6573 117.636 68.7256 117.746V117.745Z" fill="#000070"/>
<path d="M66.1012 35.3877C65.9812 31.61 67.2362 27.9181 69.6309 25.0039C70.8365 23.5303 72.2981 22.2887 73.9447 21.3394C75.6115 20.3786 77.4378 19.7296 79.335 19.4238H79.3397C79.4933 19.399 79.6503 19.4049 79.8017 19.4411C79.953 19.4773 80.0958 19.5431 80.2219 19.6347C80.3479 19.7264 80.4548 19.8421 80.5364 19.9752C80.6179 20.1084 80.6726 20.2564 80.6973 20.4108C80.7219 20.5652 80.7161 20.723 80.6801 20.8751C80.644 21.0272 80.5786 21.1707 80.4874 21.2974C80.3962 21.4241 80.2811 21.5316 80.1486 21.6135C80.0161 21.6955 79.8688 21.7505 79.7152 21.7752C79.6888 21.7793 79.6597 21.7827 79.6333 21.7854C77.9833 21.9355 76.3741 22.3852 74.8838 23.1128C73.3721 23.8503 72.0062 24.8577 70.8528 26.0858C69.6834 27.3285 68.747 28.7734 68.089 30.3508C67.4249 31.9502 67.0522 33.6565 66.9889 35.3883C66.9889 35.5067 66.9421 35.6201 66.8589 35.7038C66.7756 35.7874 66.6627 35.8344 66.545 35.8344C66.4273 35.8344 66.3144 35.7874 66.2312 35.7038C66.148 35.6201 66.1012 35.5067 66.1012 35.3883V35.3877Z" fill="#000070"/>
<g opacity="0.3">
<path d="M157.01 112.547C156.382 120.081 150.138 125.887 142.616 125.887H81.3728C80.7007 125.886 80.0294 125.841 79.3634 125.751C63.7616 125.744 51.3566 119.138 43.3291 110.372C42.9265 109.934 42.5409 109.488 42.162 109.029C41.9929 108.825 41.8271 108.614 41.6613 108.407C41.526 108.227 41.384 108.05 41.2486 107.863C41.1235 107.703 41.0051 107.54 40.8901 107.377C40.7852 107.241 40.6871 107.098 40.589 106.955C40.4401 106.748 40.2981 106.54 40.156 106.326C40.0207 106.129 39.8921 105.928 39.7636 105.728C39.7027 105.636 39.6418 105.541 39.5843 105.446C39.4963 105.303 39.4084 105.16 39.3238 105.017C39.2697 104.932 39.2155 104.847 39.1682 104.759C39.0836 104.623 38.999 104.48 38.9212 104.337C38.8421 104.205 38.7717 104.074 38.6946 103.943L38.4294 103.457C38.4138 103.428 38.3989 103.399 38.3834 103.368C38.2852 103.185 38.1905 103.001 38.0958 102.814C38.0011 102.627 37.8928 102.423 37.8015 102.226C37.7203 102.059 37.6425 101.893 37.5647 101.726C37.5518 101.705 37.5415 101.682 37.5343 101.658C37.3146 101.189 37.1071 100.716 36.9118 100.24C36.7088 99.7473 36.5183 99.2487 36.3401 98.7441C35.6598 95.9832 35.3163 93.1494 35.3171 90.3052V60.82C35.3171 54.7747 37.7122 48.964 42.0118 44.7378C49.3865 37.4889 58.5676 30.2128 69.5179 26.4353C67.582 29.014 66.5368 32.1573 66.541 35.3877C66.0322 60.0876 65.0234 86.8895 67.1959 109.127C67.7412 114.703 72.3493 118.999 77.9243 119.146C78.4006 119.159 78.8799 119.165 79.362 119.165C80.0281 119.255 80.6994 119.3 81.3714 119.301H142.615C150.108 119.301 156.376 113.541 157.002 106.037C158.078 93.1682 158.667 80.46 158.768 67.9125C158.877 82.5594 158.291 97.4376 157.01 112.547Z" fill="#000070"/>
</g>
<path d="M79.3871 127.111H79.362C79.0042 127.108 78.6622 126.962 78.4108 126.706C78.1594 126.45 78.0192 126.104 78.0207 125.745C78.0223 125.385 78.1655 125.041 78.4191 124.787C78.6727 124.533 79.016 124.391 79.3739 124.391C79.7317 124.391 80.075 124.533 80.3286 124.787C80.5822 125.041 80.7254 125.385 80.727 125.745C80.7286 126.104 80.5883 126.45 80.3369 126.706C80.0856 126.962 79.7435 127.108 79.3857 127.111H79.3871Z" fill="#000070"/>
<path d="M79.6117 21.9507C79.2652 21.9504 78.932 21.8166 78.6807 21.5767C78.4295 21.3369 78.2794 21.0093 78.2614 20.6615C78.2433 20.3137 78.3587 19.9722 78.5838 19.7074C78.8088 19.4426 79.1264 19.2746 79.471 19.2381C79.7078 19.213 79.9486 19.1912 80.1888 19.1701C80.366 19.1567 80.5441 19.1785 80.7129 19.2343C80.8817 19.2901 81.038 19.3788 81.1727 19.4952C81.3074 19.6117 81.418 19.7537 81.4982 19.9131C81.5783 20.0726 81.6264 20.2463 81.6397 20.4244C81.653 20.6025 81.6313 20.7815 81.5758 20.9512C81.5203 21.1209 81.4321 21.2779 81.3162 21.4133C81.2004 21.5487 81.0591 21.6599 80.9004 21.7404C80.7418 21.8209 80.569 21.8693 80.3918 21.8827C80.1787 21.899 79.9655 21.918 79.7558 21.9405C79.7078 21.948 79.6597 21.9507 79.6117 21.9507Z" fill="#000070"/>
<g opacity="0.2">
<path d="M146.896 104.579C146.896 104.579 146.868 105.228 146.737 106.275C145.345 107.311 143.658 107.869 141.926 107.866H85.3646C84.5892 107.867 83.8177 107.755 83.0744 107.533C82.2079 106.77 81.5139 105.829 81.039 104.774C80.564 103.719 80.3191 102.574 80.3207 101.417V41.8953C80.3185 40.6453 80.6045 39.4117 81.1563 38.2913C92.428 75.3892 114.747 96.9149 146.896 104.579Z" fill="#000070"/>
</g>
<path d="M141.925 109.247H85.3639C80.136 109.247 75.8831 104.972 75.8831 99.7172V40.194C75.8831 34.9395 80.136 30.665 85.3639 30.665H141.919C144.364 30.6578 146.717 31.603 148.483 33.3021C150.249 35.0012 151.291 37.3219 151.391 39.7771C152.246 59.9965 152.249 80.3057 151.399 100.149C151.295 102.602 150.251 104.919 148.485 106.615C146.719 108.311 144.368 109.254 141.925 109.247ZM85.3639 33.4258C83.5786 33.4278 81.8669 34.1415 80.6045 35.4104C79.342 36.6792 78.632 38.3996 78.63 40.194V99.7172C78.6311 101.512 79.3406 103.233 80.603 104.503C81.8654 105.773 83.5774 106.487 85.3632 106.489H141.925C143.66 106.495 145.329 105.826 146.584 104.622C147.838 103.417 148.58 101.771 148.654 100.029C149.5 80.2669 149.498 60.0346 148.647 39.8941C148.575 38.151 147.834 36.5038 146.579 35.2983C145.324 34.0928 143.654 33.4226 141.918 33.4286L85.3639 33.4258Z" fill="#000070"/>
<path d="M51.4331 69.7859C51.1639 69.7859 50.9058 69.6784 50.7155 69.4872C50.5252 69.2959 50.4182 69.0364 50.4182 68.7659V53.8057C50.4182 53.5352 50.5252 53.2757 50.7155 53.0844C50.9058 52.8932 51.1639 52.7857 51.4331 52.7857C51.7022 52.7857 51.9604 52.8932 52.1507 53.0844C52.341 53.2757 52.448 53.5352 52.448 53.8057V68.7659C52.448 69.0364 52.341 69.2959 52.1507 69.4872C51.9604 69.6784 51.7022 69.7859 51.4331 69.7859Z" fill="#000070"/>
<path d="M46.4718 69.7859C46.2026 69.7859 45.9445 69.6785 45.7542 69.4872C45.5638 69.2959 45.4569 69.0364 45.4569 68.7659V55.5057C45.4569 55.2352 45.5638 54.9758 45.7542 54.7845C45.9445 54.5932 46.2026 54.4857 46.4718 54.4857C46.7409 54.4857 46.9991 54.5932 47.1894 54.7845C47.3797 54.9758 47.4866 55.2352 47.4866 55.5057V68.7659C47.4866 69.0364 47.3797 69.2959 47.1894 69.4872C46.9991 69.6785 46.7409 69.7859 46.4718 69.7859Z" fill="#000070"/>
<path d="M41.5105 69.7859C41.2413 69.7859 40.9832 69.6784 40.7929 69.4872C40.6025 69.2959 40.4956 69.0364 40.4956 68.7659V56.8657C40.4956 56.5952 40.6025 56.3358 40.7929 56.1445C40.9832 55.9532 41.2413 55.8457 41.5105 55.8457C41.7796 55.8457 42.0378 55.9532 42.2281 56.1445C42.4184 56.3358 42.5253 56.5952 42.5253 56.8657V68.7659C42.5253 69.0364 42.4184 69.2959 42.2281 69.4872C42.0378 69.6784 41.7796 69.7859 41.5105 69.7859Z" fill="#000070"/>
<path d="M47.5286 36.7477C47.4968 36.7477 47.4609 36.7477 47.4318 36.7477C47.2543 36.7351 47.0811 36.6875 46.9219 36.6075C46.7628 36.5275 46.6209 36.4167 46.5043 36.2816C46.3878 36.1464 46.299 35.9895 46.2429 35.8197C46.1868 35.65 46.1646 35.4708 46.1775 35.2925C46.8879 25.1821 48.5218 16.5242 51.174 8.81768C51.5335 7.77032 52.1393 6.82567 52.9398 6.06396C53.7403 5.30224 54.7119 4.74596 55.7721 4.44238C56.8323 4.1388 57.9497 4.09687 59.0294 4.32017C60.1092 4.54346 61.1193 5.02539 61.9741 5.725C67.522 10.2681 72.4272 15.1812 76.5502 20.3221C76.7758 20.6029 76.8813 20.9623 76.8433 21.3212C76.8053 21.6801 76.6269 22.0092 76.3476 22.236C76.0682 22.4627 75.7106 22.5687 75.3535 22.5305C74.9964 22.4923 74.669 22.3131 74.4434 22.0323C70.438 17.039 65.6668 12.2626 60.2617 7.8371C59.7445 7.41453 59.1336 7.12359 58.4806 6.98898C57.8277 6.85437 57.1521 6.88006 56.5112 7.06386C55.8703 7.24766 55.2829 7.58416 54.799 8.0448C54.3151 8.50543 53.9489 9.0766 53.7314 9.70985C51.1604 17.1859 49.5705 25.6173 48.877 35.4869C48.8521 35.8293 48.6992 36.1496 48.4491 36.3834C48.199 36.6173 47.8702 36.7474 47.5286 36.7477Z" fill="#000070"/>
<path d="M140.605 21.8453C140.284 21.8449 139.973 21.7297 139.729 21.5203C139.484 21.3109 139.322 21.0209 139.271 20.7022C138.241 14.2897 135.829 8.6538 132.102 3.95154C131.829 3.60459 131.488 3.31755 131.1 3.10809C130.712 2.89864 130.286 2.77121 129.847 2.73365C129.419 2.6919 128.987 2.73885 128.577 2.8716C128.168 3.00434 127.79 3.22007 127.466 3.50546C122.889 7.53519 118.984 13.1113 115.176 21.0497C115.104 21.2178 114.998 21.3695 114.866 21.4957C114.734 21.6218 114.578 21.7198 114.407 21.7837C114.236 21.8476 114.054 21.8762 113.872 21.8677C113.69 21.8591 113.511 21.8137 113.347 21.7341C113.183 21.6545 113.036 21.5424 112.916 21.4045C112.796 21.2666 112.705 21.1057 112.649 20.9315C112.592 20.7573 112.571 20.5734 112.587 20.3909C112.603 20.2083 112.655 20.0309 112.741 19.8692C116.712 11.5874 120.826 5.73657 125.686 1.45659C126.284 0.928832 126.983 0.529544 127.74 0.283267C128.497 0.0369907 129.297 -0.051072 130.089 0.0244917C130.891 0.0986442 131.669 0.334497 132.378 0.717956C133.088 1.10141 133.712 1.62461 134.216 2.25628C138.235 7.32983 140.834 13.3894 141.939 20.2684C141.996 20.624 141.911 20.9879 141.702 21.2804C141.493 21.5729 141.176 21.7699 140.823 21.8283C140.751 21.84 140.678 21.8457 140.605 21.8453Z" fill="#000070"/>
<path d="M124.39 21.6753C124.194 21.6751 124.002 21.6262 123.829 21.5328C123.657 21.4395 123.51 21.3047 123.402 21.1405C123.294 20.9762 123.229 20.7877 123.211 20.5917C123.194 20.3957 123.225 20.1984 123.301 20.0174C125.944 13.8042 128.173 11.1277 130.527 11.3514C132.79 11.5629 134.384 14.2999 135.695 20.2269C135.729 20.3794 135.732 20.5372 135.705 20.6911C135.678 20.8451 135.622 20.9922 135.538 21.1241C135.455 21.2559 135.346 21.37 135.219 21.4597C135.091 21.5495 134.948 21.6131 134.796 21.6471C134.644 21.681 134.487 21.6845 134.334 21.6575C134.181 21.6305 134.035 21.5734 133.903 21.4895C133.772 21.4056 133.659 21.2966 133.569 21.1686C133.48 21.0406 133.417 20.8962 133.383 20.7437C131.905 14.0592 130.468 13.7396 130.309 13.7212C130.138 13.7083 128.535 13.7695 125.479 20.9531C125.388 21.1675 125.236 21.3501 125.042 21.4785C124.849 21.6069 124.622 21.6753 124.39 21.6753Z" fill="#000070"/>
<path d="M57.1914 29.6015C56.8833 29.6014 56.5873 29.4806 56.3664 29.2648C56.1454 29.0489 56.0169 28.755 56.0081 28.4455C55.7774 20.5723 56.7753 16.6942 59.2441 15.87C61.5675 15.0955 64.336 17.2301 68.2223 22.7973C68.3137 22.9251 68.379 23.0699 68.4144 23.2233C68.4498 23.3767 68.4545 23.5356 68.4284 23.6908C68.4022 23.846 68.3457 23.9945 68.262 24.1276C68.1784 24.2607 68.0693 24.3759 67.941 24.4663C67.8128 24.5567 67.668 24.6207 67.515 24.6544C67.3619 24.6882 67.2038 24.6911 67.0497 24.663C66.8955 24.6349 66.7485 24.5763 66.617 24.4907C66.4856 24.4051 66.3723 24.2941 66.2839 24.1641C61.8056 17.7503 60.1636 18.0706 59.9917 18.1284C59.6751 18.2344 58.1082 19.2252 58.3768 28.3754C58.3857 28.691 58.2695 28.9972 58.0538 29.2268C57.8381 29.4563 57.5406 29.5904 57.2266 29.5994L57.1914 29.6015Z" fill="#000070"/>
<path d="M83.9986 124.739C86.0405 111.013 102.846 111.003 104.905 124.719C105.043 125.659 104.872 126.618 104.416 127.45C103.96 128.282 103.245 128.94 102.381 129.325C97.8792 131.331 90.9849 131.428 86.3896 129.28C84.6785 128.482 83.7205 126.612 83.9986 124.739Z" fill="white"/>
<g opacity="0.2">
<path d="M104.556 127.162C104.118 128.127 103.343 128.896 102.378 129.324C97.8785 131.33 90.9842 131.432 86.3869 129.28C84.6785 128.481 83.7212 126.611 83.9986 124.741C84.8105 119.27 87.9701 115.979 91.6067 114.87C90.1283 116.547 89.0357 118.835 88.6061 121.739C88.3287 123.612 89.2826 125.479 90.9944 126.281C94.8238 128.066 100.25 128.297 104.556 127.162Z" fill="#000070"/>
</g>
<g opacity="0.55">
<path d="M103.048 128.947C103.244 128.323 103.296 127.662 103.2 127.015C102.821 124.493 101.941 122.432 100.747 120.841C97.4049 120.787 95.179 119.449 94.0694 116.829C91.0722 116.421 87.9362 117.41 85.6291 119.807C90.4328 111.28 103.132 112.915 104.901 124.72C105.023 125.529 104.913 126.356 104.585 127.104C104.257 127.852 103.724 128.492 103.048 128.947Z" fill="white"/>
</g>
<path d="M94.3914 132.21C91.3056 132.21 88.2346 131.644 85.8159 130.51C83.5899 129.47 82.2923 127.013 82.6603 124.535C83.8376 116.624 89.4261 113.08 94.4455 113.077H94.4516C99.4671 113.077 105.056 116.613 106.24 124.514C106.421 125.748 106.195 127.008 105.596 128.101C104.998 129.193 104.059 130.059 102.925 130.566C100.471 131.663 97.4265 132.21 94.3914 132.21ZM85.3369 124.94C85.1447 126.232 85.8105 127.511 86.9606 128.046C91.0525 129.959 97.5828 129.975 101.833 128.082C102.426 127.818 102.916 127.366 103.229 126.795C103.543 126.224 103.661 125.567 103.567 124.922C102.62 118.62 98.3108 115.8 94.455 115.8H94.4496C90.5931 115.8 86.2786 118.629 85.3396 124.94H85.3369Z" fill="#000070"/>
<path d="M87.6616 128.735C88.8523 128.575 89.9288 128.237 90.627 127.458C90.9943 127.036 91.2555 126.531 91.3888 125.987C91.5431 125.411 91.6012 124.782 91.6134 124.142V124.125C91.6157 124.014 91.659 123.908 91.735 123.827C91.811 123.746 91.9142 123.697 92.0245 123.688C92.1348 123.68 92.2443 123.713 92.3316 123.781C92.419 123.849 92.4779 123.948 92.497 124.057C92.6271 124.76 92.6714 125.477 92.629 126.191C92.5804 126.97 92.3498 127.727 91.9558 128.4C91.5424 129.099 90.9281 129.678 90.2643 130.1C89.6212 130.5 88.9309 130.818 88.2096 131.047L88.19 131.054C87.8904 131.154 87.5635 131.131 87.2812 130.989C86.9989 130.847 86.7843 130.598 86.6846 130.297C86.5849 129.995 86.6083 129.667 86.7497 129.383C86.891 129.099 87.1387 128.884 87.4383 128.783C87.5111 128.76 87.5858 128.744 87.6616 128.735Z" fill="#000070"/>
<path d="M133.05 124.739C135.092 111.013 151.897 111.003 153.956 124.719C154.095 125.659 153.923 126.618 153.467 127.45C153.011 128.282 152.297 128.94 151.433 129.325C146.931 131.331 140.036 131.428 135.441 129.28C133.73 128.482 132.772 126.612 133.05 124.739Z" fill="white"/>
<g opacity="0.2">
<path d="M153.607 127.162C153.169 128.127 152.394 128.896 151.429 129.324C146.929 131.33 140.035 131.432 135.438 129.28C133.729 128.481 132.772 126.611 133.049 124.741C133.861 119.27 137.021 115.979 140.658 114.87C139.179 116.547 138.09 118.835 137.657 121.739C137.38 123.612 138.337 125.479 140.045 126.281C143.875 128.066 149.301 128.297 153.607 127.162Z" fill="#000070"/>
</g>
<g opacity="0.55">
<path d="M152.098 128.947C152.295 128.323 152.347 127.662 152.251 127.015C151.872 124.493 150.992 122.432 149.798 120.841C146.456 120.787 144.23 119.449 143.12 116.829C140.123 116.421 136.987 117.41 134.68 119.807C139.484 111.28 152.183 112.915 153.952 124.72C154.074 125.529 153.964 126.356 153.636 127.104C153.308 127.852 152.774 128.492 152.098 128.947Z" fill="white"/>
</g>
<path d="M95.8427 129.474C96.8961 128.893 97.7777 128.186 98.1478 127.207C98.3389 126.679 98.4008 126.114 98.3284 125.558C98.2648 124.965 98.093 124.357 97.8744 123.756L97.8683 123.741C97.8309 123.636 97.8335 123.521 97.8756 123.418C97.9177 123.316 97.9963 123.232 98.0962 123.185C98.196 123.137 98.3099 123.128 98.4158 123.161C98.5216 123.193 98.6118 123.263 98.6687 123.358C99.0429 123.966 99.3422 124.618 99.5598 125.298C99.7949 126.043 99.8524 126.832 99.7276 127.603C99.5922 128.405 99.2296 129.167 98.7655 129.8C98.31 130.408 97.7811 130.956 97.1911 131.432L97.1749 131.446C96.9308 131.64 96.6206 131.731 96.3107 131.698C96.0009 131.666 95.7161 131.512 95.5175 131.271C95.3188 131.03 95.2222 130.72 95.2482 130.408C95.2742 130.096 95.4208 129.807 95.6566 129.602C95.7149 129.554 95.7771 129.511 95.8427 129.474Z" fill="#000070"/>
<path d="M143.443 132.21C140.357 132.21 137.286 131.644 134.867 130.51C132.641 129.47 131.344 127.013 131.712 124.535C132.889 116.624 138.478 113.08 143.497 113.077H143.503C148.519 113.077 154.107 116.613 155.292 124.514C155.473 125.748 155.246 127.008 154.648 128.101C154.049 129.193 153.111 130.059 151.977 130.566C149.523 131.663 146.478 132.21 143.443 132.21ZM134.388 124.94C134.196 126.232 134.862 127.511 136.012 128.046C140.104 129.959 146.634 129.975 150.885 128.082C151.477 127.818 151.968 127.366 152.281 126.795C152.594 126.224 152.713 125.567 152.619 124.922C151.671 118.62 147.362 115.8 143.507 115.8H143.501C139.645 115.8 135.33 118.629 134.391 124.94H134.388Z" fill="#000070"/>
<path d="M136.713 128.735C137.904 128.575 138.98 128.237 139.679 127.458C140.046 127.036 140.307 126.531 140.44 125.987C140.595 125.411 140.653 124.782 140.665 124.142V124.125C140.667 124.014 140.711 123.908 140.787 123.827C140.863 123.746 140.966 123.697 141.076 123.688C141.186 123.68 141.296 123.713 141.383 123.781C141.471 123.849 141.529 123.948 141.549 124.057C141.679 124.76 141.723 125.477 141.681 126.191C141.632 126.97 141.401 127.727 141.007 128.4C140.594 129.099 139.98 129.678 139.316 130.1C138.673 130.5 137.982 130.818 137.261 131.047L137.242 131.054C136.942 131.154 136.615 131.131 136.333 130.989C136.05 130.847 135.836 130.598 135.736 130.297C135.636 129.995 135.66 129.667 135.801 129.383C135.943 129.099 136.19 128.884 136.49 128.783C136.563 128.76 136.637 128.744 136.713 128.735Z" fill="#000070"/>
<path d="M144.894 129.474C145.948 128.893 146.829 128.186 147.199 127.207C147.39 126.679 147.452 126.114 147.38 125.558C147.316 124.965 147.145 124.357 146.926 123.756L146.92 123.741C146.882 123.636 146.885 123.521 146.927 123.418C146.969 123.316 147.048 123.232 147.148 123.185C147.248 123.137 147.361 123.128 147.467 123.161C147.573 123.193 147.663 123.263 147.72 123.358C148.094 123.966 148.394 124.618 148.611 125.298C148.846 126.043 148.904 126.832 148.779 127.603C148.644 128.405 148.281 129.167 147.817 129.8C147.362 130.408 146.833 130.956 146.243 131.432L146.226 131.446C145.982 131.64 145.672 131.731 145.362 131.698C145.052 131.666 144.768 131.512 144.569 131.271C144.37 131.03 144.274 130.72 144.3 130.408C144.326 130.096 144.472 129.807 144.708 129.602C144.766 129.554 144.829 129.511 144.894 129.474Z" fill="#000070"/>
<path d="M88.4291 56.5866C88.2498 56.6348 88.0615 56.64 87.8796 56.6016C87.6977 56.5632 87.5272 56.4824 87.382 56.3656C87.2367 56.2489 87.1208 56.0995 87.0436 55.9296C86.9664 55.7596 86.93 55.574 86.9374 55.3875C87.1078 50.9912 91.2515 49.2684 91.4298 49.1967C91.7197 49.0837 92.0425 49.09 92.3284 49.2142C92.6143 49.3384 92.8403 49.5704 92.9576 49.8602C93.0749 50.15 93.0741 50.4743 92.9553 50.7628C92.8365 51.0514 92.6093 51.2812 92.3228 51.4024C92.1931 51.4568 89.4145 52.6491 89.304 55.4862C89.2944 55.7397 89.2043 55.9832 89.0469 56.1812C88.8895 56.3792 88.673 56.5212 88.4291 56.5866Z" fill="#000070"/>
<path d="M142.625 55.7519C142.396 55.7521 142.172 55.6854 141.979 55.56C141.787 55.4346 141.636 55.2558 141.543 55.0454C140.376 52.4137 137.266 52.3702 137.235 52.3695C136.921 52.3682 136.62 52.2415 136.399 52.0174C136.178 51.7932 136.054 51.49 136.056 51.1744C136.057 50.8588 136.183 50.5566 136.406 50.3344C136.629 50.1122 136.931 49.9881 137.245 49.9895C137.435 49.9895 141.923 50.0575 143.706 54.0777C143.786 54.259 143.819 54.4575 143.804 54.6552C143.788 54.853 143.724 55.0437 143.616 55.21C143.509 55.3763 143.361 55.513 143.188 55.6077C143.015 55.7023 142.82 55.7519 142.623 55.7519H142.625Z" fill="#000070"/>
<g opacity="0.3">
<path d="M29.9363 125.302C27.2909 127.57 23.3296 129.096 18.482 129.712C18.3395 129.731 18.196 129.74 18.0523 129.739C17.1925 129.738 16.3654 129.408 15.739 128.816C15.1127 128.224 14.7341 127.414 14.6803 126.552C14.6264 125.689 14.9013 124.839 15.4491 124.173C15.997 123.506 16.7765 123.075 17.6295 122.966C19.304 122.755 20.8195 122.412 22.1219 121.956C33.353 121.643 30.4945 111.97 30.4945 111.97C32.0508 113.562 32.9696 115.674 33.0756 117.903C33.2279 120.763 32.0845 123.459 29.9363 125.302Z" fill="#000070"/>
</g>
<path d="M119.668 76.1202C119.668 77.3374 117.994 78.32 115.936 78.3146C113.877 78.3091 112.21 77.3191 112.214 76.1018C112.219 74.8846 113.886 74.7833 115.945 74.7887C118.004 74.7942 119.672 74.903 119.668 76.1202Z" fill="#000070"/>
<path d="M108.005 84.6477C107.965 83.6583 108.159 82.5805 108.811 81.6434C109.152 81.1717 109.593 80.7809 110.1 80.4983C110.619 80.2199 111.19 80.0552 111.776 80.0148C112.939 79.9216 114.07 80.2752 115.024 80.873C115.502 81.1782 115.935 81.5505 116.309 81.9787L116.576 82.3146L116.699 82.4914L116.761 82.5798C116.779 82.6083 116.81 82.6519 116.792 82.6233C116.765 82.5802 116.727 82.5447 116.683 82.5202C116.638 82.4956 116.588 82.4827 116.537 82.4827C116.486 82.4827 116.436 82.4956 116.391 82.5202C116.347 82.5447 116.309 82.5802 116.282 82.6233C116.264 82.6519 116.294 82.6083 116.313 82.5798L116.375 82.4914L116.497 82.3146C116.584 82.2008 116.675 82.0893 116.768 81.98C117.141 81.5514 117.574 81.179 118.053 80.8743C119.006 80.2759 120.137 79.9223 121.301 80.0168C121.887 80.0572 122.458 80.222 122.976 80.5003C123.482 80.7825 123.921 81.1732 124.261 81.6448C124.914 82.5811 125.107 83.659 125.068 84.6477C125.065 84.7196 125.037 84.7882 124.989 84.8414C124.941 84.8947 124.875 84.9291 124.804 84.9387C124.733 84.9484 124.661 84.9326 124.6 84.8942C124.54 84.8558 124.495 84.7972 124.473 84.7286L124.473 84.7191C124.197 83.8446 123.823 83.032 123.243 82.5152C122.687 81.9827 121.976 81.7672 121.25 81.808C120.525 81.8488 119.789 82.1323 119.177 82.5709C118.871 82.7896 118.595 83.0483 118.357 83.34L118.187 83.5617L118.001 83.8337C117.836 84.0701 117.617 84.2631 117.363 84.3964C117.108 84.5296 116.825 84.5992 116.538 84.5992C116.251 84.5992 115.968 84.5296 115.713 84.3964C115.459 84.2631 115.24 84.0701 115.075 83.8337L114.889 83.5617L114.719 83.3407C114.481 83.049 114.205 82.7906 113.899 82.5723C113.29 82.1337 112.552 81.842 111.826 81.81C111.1 81.778 110.391 81.9841 109.834 82.5165C109.255 83.032 108.88 83.8453 108.604 84.7191L108.604 84.7279C108.582 84.7969 108.537 84.856 108.476 84.8949C108.416 84.9337 108.343 84.9497 108.272 84.9401C108.201 84.9305 108.135 84.8959 108.087 84.8424C108.038 84.7889 108.01 84.7199 108.008 84.6477L108.005 84.6477Z" fill="#000070"/>
<path d="M143.154 71.1681C143.168 65.4368 139.535 60.7816 135.04 60.7706C130.544 60.7595 126.889 65.3968 126.875 71.1282C126.861 76.8595 130.494 81.5147 134.989 81.5257C139.485 81.5368 143.14 76.8995 143.154 71.1681Z" fill="white"/>
<path d="M135.005 82.5857H134.986C129.916 82.5728 125.805 77.4319 125.82 71.1255C125.834 64.8191 129.962 59.7102 135.021 59.7102H135.039C140.109 59.7231 144.221 64.864 144.205 71.1704C144.193 77.4693 140.066 82.5857 135.005 82.5857ZM135.023 61.8298C131.122 61.8298 127.941 65.9983 127.928 71.131C127.916 76.2637 131.085 80.4566 134.991 80.4661H135.005C138.906 80.4661 142.087 76.2977 142.099 71.165C142.111 66.0323 138.944 61.8393 135.037 61.8298H135.023Z" fill="#000070"/>
<path d="M139.874 71.9687C139.874 67.2897 136.954 63.4965 133.353 63.4965C129.751 63.4965 126.831 67.2897 126.831 71.9687C126.831 76.6478 129.751 80.441 133.353 80.441C136.954 80.441 139.874 76.6478 139.874 71.9687Z" fill="#000070"/>
<path d="M136.411 69.1011C136.411 67.8595 135.727 66.853 134.884 66.853C134.04 66.853 133.356 67.8595 133.356 69.1011C133.356 70.3427 134.04 71.3493 134.884 71.3493C135.727 71.3493 136.411 70.3427 136.411 69.1011Z" fill="white"/>
<path d="M105.308 71.0787C105.322 65.3473 101.689 60.6922 97.1937 60.6811C92.6982 60.6701 89.0426 65.3073 89.0287 71.0387C89.0147 76.7701 92.6478 81.4253 97.1433 81.4363C101.639 81.4474 105.294 76.8101 105.308 71.0787Z" fill="white"/>
<path d="M97.1559 82.496H97.1376C94.6343 82.4898 92.2981 81.2611 90.562 79.0368C88.8841 76.8866 87.964 74.0448 87.9708 71.0358C87.9863 64.7369 92.1134 59.6211 97.1722 59.6211H97.1904C99.6937 59.6273 102.029 60.856 103.766 63.0804C105.444 65.2305 106.364 68.0723 106.357 71.0813C106.346 77.3796 102.219 82.496 97.1559 82.496ZM89.0255 71.0385H90.0796C90.0735 73.5736 90.834 75.9482 92.221 77.7257C93.5505 79.4257 95.298 80.3689 97.1424 80.3737H97.1559C101.057 80.3737 104.238 76.2052 104.251 71.0732C104.257 68.5381 103.497 66.1628 102.109 64.386C100.78 62.6859 99.0327 61.7421 97.1877 61.738H97.1749C93.2737 61.738 90.0918 65.9058 90.0796 71.0385H89.0255Z" fill="#000070"/>
<path d="M105.021 72.0789C105.033 67.3998 102.122 63.5995 98.5205 63.5906C94.9188 63.5818 91.9898 67.3678 91.9784 72.0468C91.967 76.7259 94.8776 80.5262 98.4793 80.535C102.081 80.5439 105.01 76.7579 105.021 72.0789Z" fill="#000070"/>
<path d="M98.507 69.1838C98.51 67.9422 97.8285 66.934 96.9847 66.9319C96.141 66.9299 95.4546 67.9347 95.4516 69.1763C95.4486 70.4179 96.1301 71.4261 96.9738 71.4281C97.8175 71.4302 98.504 70.4254 98.507 69.1838Z" fill="white"/>
<g opacity="0.55">
<path d="M177.33 166.361V171.825C177.331 172.931 176.952 174.004 176.259 174.864C175.565 175.723 174.598 176.316 173.521 176.544C174.094 176.094 174.557 175.519 174.876 174.862C175.194 174.205 175.359 173.484 175.358 172.753V167.289C175.358 166.313 175.063 165.359 174.512 164.555L160.101 143.414C159.66 142.769 159.069 142.242 158.38 141.878C157.691 141.514 156.925 141.323 156.146 141.323H96.3014C95.9682 141.322 95.6358 141.357 95.3102 141.428C96.1528 140.756 97.1978 140.391 98.2736 140.395H158.12C158.898 140.395 159.665 140.586 160.354 140.95C161.043 141.314 161.633 141.841 162.074 142.486L176.485 163.627C177.036 164.431 177.33 165.385 177.33 166.361Z" fill="white"/>
</g>
<g opacity="0.3">
<path d="M115.283 166.148C115.624 166.565 115.874 167.049 116.018 167.569C116.162 168.089 116.196 168.634 116.118 169.168L115.036 176.622C115.036 176.622 115.029 176.632 115.019 176.649H113.368C112.589 176.649 111.822 176.459 111.132 176.095C110.443 175.731 109.852 175.203 109.41 174.558L94.999 153.413C94.4478 152.61 94.1528 151.656 94.1533 150.68V145.219C94.1527 144.585 94.2766 143.957 94.5179 143.371C94.7591 142.785 95.1129 142.253 95.5591 141.804C96.0052 141.356 96.535 141 97.118 140.758C97.7011 140.515 98.326 140.391 98.957 140.391H107.57L112.441 162.662L115.283 166.148Z" fill="#000070"/>
</g>
<path d="M173.207 177.841H113.363C112.392 177.841 111.436 177.603 110.577 177.149C109.718 176.695 108.982 176.038 108.432 175.234L94.0207 154.085C93.3338 153.083 92.9668 151.895 92.9686 150.678V145.218C92.9704 143.623 93.6015 142.094 94.7235 140.966C95.8455 139.839 97.3668 139.204 98.9536 139.203H158.798C159.768 139.203 160.725 139.44 161.584 139.894C162.443 140.348 163.179 141.005 163.729 141.809L178.14 162.953C178.828 163.955 179.195 165.143 179.193 166.36V171.823C179.192 173.418 178.561 174.948 177.438 176.076C176.316 177.204 174.794 177.839 173.207 177.841ZM98.9509 141.585C97.9919 141.586 97.0725 141.969 96.3945 142.651C95.7164 143.332 95.335 144.256 95.3339 145.22V150.68C95.3327 151.416 95.5548 152.134 95.9705 152.74L110.382 173.888C110.714 174.374 111.158 174.771 111.677 175.045C112.195 175.319 112.772 175.462 113.358 175.463H173.202C174.161 175.461 175.081 175.078 175.759 174.396C176.437 173.715 176.818 172.791 176.82 171.827V166.364C176.821 165.628 176.598 164.909 176.182 164.304L161.771 143.16C161.439 142.675 160.995 142.278 160.476 142.004C159.957 141.73 159.38 141.587 158.794 141.587L98.9509 141.585Z" fill="#000070"/>
<path d="M110.793 155.487V162.665L99.5016 145.134V137.957L110.793 155.487Z" fill="white"/>
<g opacity="0.3">
<path d="M110.793 155.487V162.665L99.5016 145.134V137.957L110.793 155.487Z" fill="#000070"/>
</g>
<path d="M175.358 155.487V162.665H110.793V155.487L99.5016 137.957H164.069L175.358 155.487Z" fill="white"/>
<g opacity="0.55">
<path d="M175.359 155.487V162.665H173.776V157.555L170.214 151.955H109.055L108.273 150.595L169.168 150.313L166.591 146.26H104.938L104.529 144.546L165.224 144.274L162.487 140.024H100.834L99.5016 137.957H164.07L175.359 155.487Z" fill="white"/>
</g>
<path d="M110.793 163.82C110.601 163.819 110.413 163.771 110.244 163.679C110.076 163.587 109.933 163.454 109.829 163.292L98.5368 145.761C98.4165 145.575 98.3525 145.357 98.3528 145.134V137.957C98.3538 137.708 98.4345 137.467 98.583 137.268C98.7314 137.069 98.9397 136.923 99.1769 136.853C99.4141 136.783 99.6676 136.791 99.8998 136.877C100.132 136.962 100.33 137.121 100.466 137.329L111.757 154.86C111.877 155.047 111.942 155.265 111.942 155.487V162.665C111.942 162.972 111.821 163.266 111.605 163.482C111.389 163.699 111.097 163.821 110.792 163.821L110.793 163.82ZM100.65 144.793L109.644 158.757V155.829L100.65 141.865V144.793Z" fill="#000070"/>
<path d="M175.358 163.82H110.793C110.488 163.82 110.195 163.698 109.98 163.481C109.764 163.264 109.643 162.97 109.643 162.664V155.829L98.5368 138.586C98.4251 138.411 98.3622 138.21 98.3546 138.003C98.347 137.795 98.3951 137.59 98.4937 137.408C98.5924 137.225 98.738 137.073 98.9154 136.967C99.0927 136.861 99.2952 136.805 99.5016 136.804H164.069C164.261 136.804 164.449 136.852 164.618 136.944C164.786 137.037 164.929 137.169 165.034 137.331L176.322 154.862C176.442 155.049 176.506 155.267 176.506 155.489V162.665C176.506 162.971 176.385 163.265 176.17 163.481C175.954 163.697 175.662 163.819 175.358 163.82ZM111.942 161.508H174.209V155.825L163.445 139.109H101.614L111.757 154.857C111.877 155.044 111.942 155.262 111.942 155.485V161.508Z" fill="#000070"/>
<path d="M175.359 156.641H110.794C110.489 156.641 110.197 156.519 109.981 156.302C109.765 156.085 109.644 155.791 109.644 155.485C109.644 155.178 109.765 154.884 109.981 154.667C110.197 154.45 110.489 154.329 110.794 154.329H175.359C175.664 154.329 175.957 154.45 176.172 154.667C176.388 154.884 176.509 155.178 176.509 155.485C176.509 155.791 176.388 156.085 176.172 156.302C175.957 156.519 175.664 156.641 175.359 156.641Z" fill="#000070"/>
<path d="M167.79 145.256H103.566C103.434 145.259 103.303 145.236 103.181 145.188C103.058 145.14 102.947 145.068 102.853 144.975C102.758 144.883 102.683 144.773 102.632 144.651C102.581 144.529 102.555 144.398 102.555 144.266C102.555 144.134 102.581 144.003 102.632 143.881C102.683 143.76 102.758 143.649 102.853 143.557C102.947 143.465 103.058 143.392 103.181 143.344C103.303 143.296 103.434 143.273 103.566 143.277H167.79C168.047 143.283 168.291 143.391 168.47 143.575C168.649 143.76 168.749 144.008 168.749 144.266C168.749 144.524 168.649 144.772 168.47 144.957C168.291 145.142 168.047 145.249 167.79 145.256Z" fill="#000070"/>
<path d="M171.994 151.037H107.771C107.51 151.037 107.26 150.933 107.075 150.748C106.891 150.562 106.787 150.31 106.787 150.048C106.787 149.786 106.891 149.534 107.075 149.348C107.26 149.163 107.51 149.059 107.771 149.059H171.994C172.255 149.059 172.505 149.163 172.69 149.348C172.874 149.534 172.978 149.786 172.978 150.048C172.978 150.31 172.874 150.562 172.69 150.748C172.505 150.933 172.255 151.037 171.994 151.037Z" fill="#000070"/>
<path d="M119.564 156.476C119.399 156.476 119.237 156.435 119.093 156.356C118.948 156.277 118.825 156.163 118.736 156.024L107.445 138.495C107.372 138.386 107.32 138.263 107.295 138.134C107.269 138.004 107.269 137.871 107.295 137.742C107.321 137.613 107.373 137.49 107.447 137.381C107.52 137.272 107.615 137.179 107.725 137.108C107.835 137.036 107.959 136.987 108.088 136.964C108.217 136.941 108.349 136.944 108.477 136.973C108.605 137.002 108.726 137.056 108.833 137.133C108.939 137.21 109.03 137.307 109.099 137.419L120.389 154.948C120.486 155.098 120.54 155.27 120.547 155.448C120.554 155.626 120.513 155.802 120.428 155.958C120.344 156.115 120.219 156.245 120.067 156.337C119.915 156.428 119.741 156.476 119.564 156.476Z" fill="#000070"/>
<path d="M127.656 156.476C127.491 156.476 127.329 156.435 127.185 156.356C127.04 156.277 126.918 156.163 126.828 156.024L115.538 138.495C115.467 138.386 115.419 138.264 115.396 138.136C115.372 138.008 115.374 137.877 115.401 137.75C115.428 137.623 115.48 137.502 115.553 137.395C115.627 137.288 115.72 137.197 115.829 137.126C115.938 137.056 116.059 137.007 116.186 136.984C116.313 136.96 116.444 136.962 116.57 136.989C116.697 137.016 116.816 137.068 116.923 137.142C117.029 137.216 117.12 137.31 117.191 137.419L128.481 154.948C128.577 155.098 128.632 155.27 128.639 155.448C128.645 155.626 128.604 155.802 128.52 155.959C128.435 156.115 128.311 156.245 128.159 156.337C128.007 156.428 127.833 156.476 127.656 156.476Z" fill="#000070"/>
<path d="M135.694 156.476C135.529 156.476 135.367 156.435 135.222 156.356C135.078 156.277 134.955 156.163 134.866 156.024L123.575 138.495C123.433 138.274 123.384 138.006 123.439 137.75C123.494 137.493 123.648 137.269 123.867 137.126C124.086 136.984 124.352 136.934 124.608 136.989C124.863 137.044 125.086 137.199 125.228 137.419L136.519 154.948C136.615 155.098 136.669 155.27 136.676 155.448C136.683 155.626 136.642 155.802 136.558 155.959C136.473 156.115 136.348 156.245 136.196 156.337C136.044 156.428 135.871 156.476 135.694 156.476Z" fill="#000070"/>
<path d="M140.347 151.037C140.182 151.037 140.021 150.996 139.876 150.917C139.732 150.838 139.609 150.724 139.52 150.585L131.732 138.495C131.659 138.386 131.607 138.263 131.582 138.134C131.556 138.004 131.556 137.871 131.582 137.742C131.608 137.613 131.66 137.49 131.733 137.381C131.807 137.272 131.902 137.179 132.012 137.108C132.122 137.036 132.245 136.987 132.375 136.964C132.504 136.941 132.636 136.944 132.764 136.973C132.892 137.002 133.013 137.056 133.12 137.133C133.226 137.21 133.317 137.307 133.386 137.419L141.173 149.509C141.269 149.659 141.324 149.832 141.331 150.009C141.337 150.187 141.296 150.364 141.212 150.52C141.127 150.676 141.002 150.807 140.85 150.898C140.698 150.989 140.524 151.037 140.347 151.037Z" fill="#000070"/>
<path d="M148.422 151.037C148.257 151.037 148.096 150.996 147.951 150.917C147.806 150.838 147.684 150.724 147.594 150.585L139.807 138.495C139.733 138.386 139.682 138.263 139.657 138.134C139.631 138.004 139.631 137.871 139.657 137.742C139.683 137.613 139.735 137.49 139.808 137.381C139.882 137.272 139.977 137.179 140.087 137.108C140.197 137.036 140.32 136.987 140.449 136.964C140.579 136.941 140.711 136.944 140.839 136.973C140.967 137.002 141.088 137.056 141.195 137.133C141.301 137.21 141.392 137.307 141.461 137.419L149.248 149.509C149.344 149.659 149.399 149.832 149.405 150.009C149.412 150.187 149.371 150.364 149.287 150.52C149.202 150.676 149.077 150.807 148.925 150.898C148.773 150.989 148.599 151.037 148.422 151.037Z" fill="#000070"/>
<path d="M159.865 156.476C159.701 156.476 159.539 156.435 159.394 156.356C159.25 156.277 159.127 156.163 159.038 156.024L147.747 138.495C147.673 138.386 147.622 138.263 147.596 138.134C147.57 138.004 147.571 137.871 147.597 137.742C147.623 137.613 147.674 137.49 147.748 137.381C147.822 137.272 147.917 137.179 148.027 137.108C148.137 137.036 148.26 136.987 148.389 136.964C148.518 136.941 148.651 136.944 148.779 136.973C148.906 137.002 149.027 137.056 149.134 137.133C149.241 137.21 149.331 137.307 149.4 137.419L160.691 154.948C160.787 155.098 160.841 155.27 160.848 155.448C160.855 155.626 160.814 155.802 160.73 155.958C160.645 156.115 160.52 156.245 160.368 156.337C160.216 156.428 160.042 156.476 159.865 156.476Z" fill="#000070"/>
<path d="M159.778 156.476C159.613 156.476 159.451 156.435 159.306 156.356C159.162 156.277 159.039 156.163 158.95 156.024L147.659 138.495C147.517 138.274 147.468 138.006 147.523 137.75C147.578 137.493 147.731 137.269 147.951 137.126C148.17 136.984 148.436 136.934 148.692 136.989C148.947 137.044 149.17 137.199 149.312 137.419L160.603 154.948C160.699 155.098 160.753 155.27 160.76 155.448C160.767 155.626 160.726 155.802 160.642 155.959C160.557 156.115 160.432 156.245 160.28 156.337C160.128 156.428 159.955 156.476 159.778 156.476Z" fill="#000070"/>
<path d="M167.602 156.476C167.437 156.476 167.276 156.435 167.131 156.356C166.986 156.277 166.864 156.163 166.775 156.024L155.483 138.495C155.41 138.386 155.358 138.263 155.333 138.134C155.307 138.004 155.307 137.871 155.333 137.742C155.359 137.613 155.411 137.49 155.485 137.381C155.558 137.272 155.653 137.179 155.763 137.108C155.873 137.036 155.997 136.987 156.126 136.964C156.255 136.941 156.387 136.944 156.515 136.973C156.643 137.002 156.764 137.056 156.871 137.133C156.977 137.21 157.068 137.307 157.137 137.419L168.427 154.948C168.524 155.098 168.578 155.27 168.585 155.448C168.592 155.626 168.551 155.802 168.466 155.958C168.382 156.115 168.257 156.245 168.105 156.337C167.953 156.428 167.779 156.476 167.602 156.476Z" fill="#000070"/>
</g>
<defs>
<clipPath id="clip0_2_224">
<rect width="218" height="181" fill="white"/>
</clipPath>
</defs>
</svg>
